<?xml version="1.0" encoding="utf-8"?>
<!-- Generator: Adobe Illustrator 15.0.0, SVG Export Plug-In . SVG Version: 6.00 Build 0)  -->
<!DOCTYPE svg PUBLIC "-//W3C//DTD SVG 1.1//EN" "http://www.w3.org/Graphics/SVG/1.1/DTD/svg11.dtd">
<svg version="1.1" id="Layer_1" xmlns="http://www.w3.org/2000/svg" xmlns:xlink="http://www.w3.org/1999/xlink" x="0px" y="0px"
	 width="776.535px" height="461.67px" viewBox="0 0 776.535 461.67" style="enable-background:new 0 0 776.535 461.67;"
	 xml:space="preserve">
<style type="text/css">
<![CDATA[
	.st0{opacity:0.76;fill:#43C4A6;enable-background:new    ;}
	.st1{fill:#ACE8F2;}
	.st2{clip-path:url(#SVGID_5_);fill:#81B05F;}
	.st3{clip-path:url(#SVGID_65_);fill:#6699C2;}
	.st4{clip-path:url(#SVGID_15_);fill:#52638F;}
	.st5{fill:#7FE0BF;}
	.st6{fill:none;stroke:#FFFFFF;stroke-width:7;stroke-miterlimit:10;}
	.st7{fill:#4AAA88;}
	.st8{fill:#175D80;}
	.st9{clip-path:url(#SVGID_21_);fill:#353F5C;}
	.st10{fill:#19242B;}
	.st11{fill:#E80000;}
	.st12{clip-path:url(#SVGID_45_);fill:#FFFFFF;}
	.st13{fill:#E9D399;}
	.st14{fill:none;stroke:#FFFFFF;stroke-width:2;stroke-miterlimit:10;}
	.st15{clip-path:url(#SVGID_25_);fill:#C22C28;}
	.st16{fill:#85939E;}
	.st17{fill:#1C2830;}
	.st18{clip-path:url(#SVGID_51_);fill:#7BBA3C;}
	.st19{fill:#897596;}
	.st20{fill:#B8B8B8;}
	.st21{fill:#1E77A3;}
	.st22{fill:none;stroke:#FFFFFF;stroke-miterlimit:10;stroke-dasharray:3.9274,1.9637;}
	.st23{fill:#EF3942;}
	.st24{fill:#EF454E;}
	.st25{clip-path:url(#SVGID_23_);fill:#374E78;}
	.st26{clip-path:url(#SVGID_62_);fill:#666666;}
	.st27{clip-path:url(#SVGID_13_);fill:#374E78;}
	.st28{clip-path:url(#SVGID_37_);fill:#61AAB8;}
	.st29{fill:#212C33;}
	.st30{clip-path:url(#SVGID_2_);fill:#B52B32;}
	.st31{fill:#F28885;}
	.st32{fill:none;stroke:#FFFFFF;stroke-width:5;stroke-linecap:round;stroke-miterlimit:10;}
	.st33{clip-path:url(#SVGID_27_);fill:#61AAB8;}
	.st34{clip-path:url(#SVGID_9_);fill:#52638F;}
	.st35{clip-path:url(#SVGID_69_);fill:#6B7680;}
	.st36{clip-path:url(#SVGID_7_);fill:#29577D;}
	.st37{fill:#91DC47;}
	.st38{clip-path:url(#SVGID_33_);fill:#437680;}
	.st39{fill:url(#SVGID_3_);}
	.st40{clip-path:url(#SVGID_54_);fill:none;stroke:#FFFFFF;stroke-width:3;stroke-miterlimit:10;}
	.st41{clip-path:url(#SVGID_41_);fill:#EA0001;}
	.st42{clip-path:url(#SVGID_17_);fill:#FFFFFF;}
	.st43{fill:#98CF70;}
	.st44{fill:#999999;}
	.st45{fill:none;stroke:#DFDFDF;stroke-linecap:round;stroke-miterlimit:10;}
	.st46{opacity:0.4;fill:#CBADDE;enable-background:new    ;}
	.st47{fill:#2F4352;}
	.st48{fill:#FF616B;}
	.st49{fill:#FF747C;}
	.st50{fill:#FF868D;}
	.st51{fill:#61AAB8;}
	.st52{fill:#FF9399;}
	.st53{fill:#FFA7AD;}
	.st54{fill:#FFBDC0;}
	.st55{fill:#FFC0C4;}
	.st56{fill:#FFD6D9;}
	.st57{fill:#FFD9DB;}
	.st58{fill:#FFDEE0;}
	.st59{fill:#FFF4CA;}
	.st60{fill:#FFFFFF;}
	.st61{fill:#62B1DD;}
	.st62{fill:#65CF69;}
	.st63{fill:#9C6B3D;}
	.st64{fill:#697FB8;}
	.st65{fill:#9E9E9E;}
	.st66{clip-path:url(#SVGID_19_);fill:#FFFFFF;}
	.st67{fill:#3672A4;}
	.st68{clip-path:url(#SVGID_60_);fill:#805832;}
	.st69{clip-path:url(#SVGID_43_);fill:#8A0001;}
	.st70{clip-path:url(#SVGID_47_);fill:#7BBA3C;}
	.st71{clip-path:url(#SVGID_56_);fill:#325680;}
	.st72{clip-path:url(#SVGID_11_);fill:#52638F;}
	.st73{fill:#D3D3D3;}
	.st74{fill:#3D699C;}
	.st75{fill:#D9BB6F;}
	.st76{opacity:0.42;fill:#0B194F;enable-background:new    ;}
	.st77{clip-path:url(#SVGID_35_);}
	.st78{clip-path:url(#SVGID_67_);fill:#55B358;}
	.st79{clip-path:url(#SVGID_49_);fill:#7BBA3C;}
	.st80{clip-path:url(#SVGID_58_);fill:#325680;}
	.st81{fill:#75AFDE;}
	.st82{fill:#75CEDE;}
	.st83{opacity:0.28;fill:#CBADDE;enable-background:new    ;}
	.st84{clip-path:url(#SVGID_31_);fill:#61AAB8;}
	.st85{fill:#DADADA;}
	.st86{fill:#DBDBDB;}
	.st87{fill:#DBEFFF;}
	.st88{fill:#DC322D;}
	.st89{fill:none;stroke:#FFFFFF;stroke-width:3;stroke-miterlimit:10;}
	.st90{fill:#405C70;}
	.st91{clip-path:url(#SVGID_39_);fill:#7B6987;}
	.st92{fill:#DFDFDF;}
	.st93{fill:#437680;}
	.st94{fill:#43C494;}
	.st95{fill:#446378;}
	.st96{clip-path:url(#SVGID_29_);fill:#437680;}
]]>
</style>
<symbol  id="New_Symbol" viewBox="-1.5 -16.971 3 33.941">
	<line class="st89" x1="0" y1="-16.971" x2="0" y2="16.971"/>
</symbol>
<g id="badge-ruby">
	<polygon class="st23" points="75.531,65.947 39.765,86.596 4,65.947 4,24.649 39.765,4 75.531,24.649 	"/>
	<g>
		<g>
			<g>
				<g>
					<defs>
						<polygon id="SVGID_1_" points="75.531,65.947 39.765,86.596 4,65.947 4,24.649 39.765,4 75.531,24.649 						"/>
					</defs>
					<clipPath id="SVGID_2_">
						<use xlink:href="#SVGID_1_"  style="overflow:visible;"/>
					</clipPath>
					<polyline class="st30" points="21.605,53.338 55.679,77.408 75.531,65.947 75.531,56.173 65.889,41.352 					"/>
				</g>
			</g>
		</g>
	</g>
	<polygon class="st56" points="55.804,30.665 48.431,26.712 39.652,26.712 30.871,26.712 23.803,30.665 13.642,41.352 
		22.094,53.085 39.693,66.091 39.693,66.103 39.699,66.094 39.709,66.103 39.804,66.009 57.287,53.058 65.889,41.352 	"/>
	<path class="st85" d="M39.652,53.058"/>
	<polygon class="st53" points="57.287,53.058 47.285,41.296 39.701,54.15 	"/>
	<polygon class="st56" points="47.285,41.296 55.679,36.009 57.287,53.058 	"/>
	<polygon class="st55" points="57.287,53.058 65.889,41.352 55.804,30.665 55.679,36.009 	"/>
	<polygon class="st52" points="22.094,53.085 32.018,41.305 39.701,54.15 	"/>
	<polygon class="st73" points="32.018,41.305 23.847,36.009 22.094,53.085 	"/>
	<polygon class="st57" points="32.018,41.305 23.847,36.009 22.094,53.085 	"/>
	<polygon class="st54" points="22.094,53.085 13.642,41.352 23.803,30.665 23.847,36.009 	"/>
	<polygon class="st55" points="39.652,41.259 32.018,41.305 32.018,41.305 39.701,54.15 47.285,41.296 47.285,41.296 	"/>
	<polygon class="st60" points="48.431,26.712 39.652,26.712 30.871,26.712 23.803,30.665 23.847,36.009 32.018,41.305 
		39.652,41.259 47.285,41.296 55.679,36.009 55.804,30.665 	"/>
	<polygon class="st48" points="39.701,54.15 39.804,66.009 57.287,53.058 	"/>
	<polygon class="st50" points="39.701,54.15 39.701,54.15 22.094,53.085 39.709,66.103 39.804,66.009 	"/>
	
		<linearGradient id="SVGID_3_" gradientUnits="userSpaceOnUse" x1="23.8467" y1="2094.9912" x2="23.8467" y2="2094.9912" gradientTransform="matrix(1 0 0 -1 0 2131)">
		<stop  offset="0" style="stop-color:#F4F4F4"/>
		<stop  offset="0.1976" style="stop-color:#F0F0F0"/>
		<stop  offset="0.403" style="stop-color:#E3E3E3"/>
		<stop  offset="0.612" style="stop-color:#CFCFCF"/>
		<stop  offset="0.822" style="stop-color:#B2B2B2"/>
		<stop  offset="1" style="stop-color:#939393"/>
	</linearGradient>
	<path class="st39" d="M23.847,36.009"/>
	<polygon class="st58" points="55.679,36.009 65.889,41.352 55.804,30.665 	"/>
	<polyline class="st58" points="23.803,36.437 23.736,36.468 13.642,41.352 23.803,30.665 	"/>
	<polygon class="st49" points="30.898,53.618 39.709,66.103 39.701,54.15 	"/>
	<polygon class="st50" points="48.506,53.618 39.693,66.103 39.701,54.15 	"/>
</g>
<g id="badge-nodejs">
	<polygon class="st43" points="75.528,65.947 39.763,86.596 4,65.947 4,24.649 39.763,4 75.528,24.649 	"/>
	<g>
		<g>
			<g>
				<g>
					<defs>
						<polygon id="SVGID_4_" points="75.528,65.947 39.763,86.596 4,65.947 4,24.649 39.763,4 75.528,24.649 						"/>
					</defs>
					<clipPath id="SVGID_5_">
						<use xlink:href="#SVGID_4_"  style="overflow:visible;"/>
					</clipPath>
					<polyline class="st2" points="22.709,59.896 22.938,60.125 45.877,83.064 75.528,65.947 75.53,54.453 56.5,35.422 
						39.763,34.009 28.127,37.062 					"/>
				</g>
			</g>
		</g>
	</g>
	<path class="st60" d="M56.5,35.422c0-0.666-0.353-1.276-0.924-1.604L40.28,24.649c-0.258-0.153-0.549-0.61-0.843-0.61
		c-0.025,0-0.137,0-0.157,0c-0.293,0-0.582,0.457-0.846,0.61L23.14,33.635c-0.57,0.324-0.925,1.028-0.925,1.695l0.031,23.746
		c0,0.326,0.174,0.656,0.461,0.819c0.285,0.171,0.638,0.182,0.918,0.013l9.16-5.2c0.574-0.34,0.996-0.938,0.996-1.598V42.04
		c0-0.66,0.279-1.271,0.854-1.599l3.834-2.232c0.288-0.165,0.586-0.246,0.907-0.246c0.314,0,0.629,0.081,0.91,0.246l4.137,2.232
		c0.572,0.327,1.193,0.938,1.193,1.599v11.071c0,0.658,0.08,1.265,0.65,1.603l8.949,5.206c0.287,0.17,0.574,0.17,0.855,0
		c0.282-0.163,0.426-0.47,0.426-0.797V35.422H56.5z"/>
</g>
<g id="badge-python">
	<polygon class="st67" points="75.53,65.947 39.765,86.596 4,65.947 4,24.649 39.765,4 75.53,24.649 	"/>
	<g>
		<g>
			<g>
				<g>
					<defs>
						<polygon id="SVGID_6_" points="75.53,65.947 39.765,86.596 4,65.947 4,24.649 39.765,4 75.53,24.649 						"/>
					</defs>
					<clipPath id="SVGID_7_">
						<use xlink:href="#SVGID_6_"  style="overflow:visible;"/>
					</clipPath>
					<polyline class="st36" points="21.483,50.845 50.843,80.205 75.53,65.947 75.53,57.089 59.302,40.861 					"/>
				</g>
			</g>
		</g>
	</g>
	<path class="st60" d="M39.907,34.357h-8.729v-3.651l3.887-4.104h10.463l4.074,4.255v10.311l-3.819,3.859H33.624l-4.386,4.423v5.564
		l-3.925-0.499l-3.832-3.668V40.745l4.445-4.447h13.979L39.907,34.357L39.907,34.357z M36.825,28.89l-1.646,1.645l1.646,1.646
		l1.646-1.646L36.825,28.89z"/>
	<path class="st60" d="M40.877,57.63h8.728V61l-3.705,3.418H35.437l-4.256-3.564V50.542l4-3.577h12.16l4.201-4.243v-5.656
		l4.154,0.131l3.604,3.668v10.101l-4.267,4.729H40.875L40.877,57.63L40.877,57.63z M41.429,62.761l1.646-1.646l-1.646-1.645
		l-1.646,1.645L41.429,62.761z"/>
</g>
<g id="badge-php">
	<polygon class="st64" points="75.529,65.947 39.763,86.596 4,65.947 4,24.649 39.763,4 75.529,24.649 	"/>
	<g>
		<g>
			<g>
				<g>
					<defs>
						<polygon id="SVGID_8_" points="75.529,65.947 39.763,86.596 4,65.947 4,24.649 39.763,4 75.529,24.649 						"/>
					</defs>
					<clipPath id="SVGID_9_">
						<use xlink:href="#SVGID_8_"  style="overflow:visible;"/>
					</clipPath>
					<polyline class="st34" points="53.146,53.316 62.246,73.621 75.529,65.009 75.532,30.865 61.05,29.245 					"/>
				</g>
			</g>
		</g>
		<g>
			<g>
				<g>
					<defs>
						<polygon id="SVGID_10_" points="75.529,65.947 39.763,86.596 4,65.947 4,24.649 39.763,4 75.529,24.649 						"/>
					</defs>
					<clipPath id="SVGID_11_">
						<use xlink:href="#SVGID_10_"  style="overflow:visible;"/>
					</clipPath>
					<polygon class="st72" points="54.962,56.227 44.707,83.742 75.529,65.947 75.529,48.972 					"/>
				</g>
			</g>
		</g>
		<g>
			<g>
				<g>
					<defs>
						<polygon id="SVGID_12_" points="75.529,65.947 39.763,86.596 4,65.947 4,24.649 39.763,4 75.529,24.649 						"/>
					</defs>
					<clipPath id="SVGID_13_">
						<use xlink:href="#SVGID_12_"  style="overflow:visible;"/>
					</clipPath>
					<polygon class="st27" points="64.67,32.981 73.074,45.216 66.957,55.73 62.666,63.105 59.767,68.088 54.962,57.369 					"/>
				</g>
			</g>
		</g>
		<g>
			<g>
				<g>
					<defs>
						<polygon id="SVGID_14_" points="75.529,65.947 39.763,86.596 4,65.947 4,24.649 39.763,4 75.529,24.649 						"/>
					</defs>
					<clipPath id="SVGID_15_">
						<use xlink:href="#SVGID_14_"  style="overflow:visible;"/>
					</clipPath>
					<polygon class="st4" points="37.168,30.72 44.36,24.403 51.379,25.455 60.326,24.403 70.8,45.088 60.076,60.046 49.078,54.975 
						50.677,45.281 49.078,53.25 45.13,52.992 41.935,56.386 39.701,56.018 39.487,53.591 37.168,54.754 34.535,65.671 
						24.535,68.088 18.569,60.085 22.067,58.45 27.166,62.826 31.024,60.085 28.921,46.237 					"/>
				</g>
			</g>
		</g>
		<g>
			<g>
				<g>
					<defs>
						<polygon id="SVGID_16_" points="75.529,65.947 39.763,86.596 4,65.947 4,24.649 39.763,4 75.529,24.649 						"/>
					</defs>
					<clipPath id="SVGID_17_">
						<use xlink:href="#SVGID_16_"  style="overflow:visible;"/>
					</clipPath>
					<polygon class="st42" points="40.134,45.589 41.728,48.439 36.519,49.625 24.875,40.675 26.597,39.797 36.496,46.246 					"/>
				</g>
			</g>
		</g>
		<g>
			<g>
				<g>
					<defs>
						<polygon id="SVGID_18_" points="75.529,65.947 39.763,86.596 4,65.947 4,24.649 39.763,4 75.529,24.649 						"/>
					</defs>
					<clipPath id="SVGID_19_">
						<use xlink:href="#SVGID_18_"  style="overflow:visible;"/>
					</clipPath>
					<polygon class="st66" points="27.47,47.647 23.961,47.647 18.171,42.832 16.942,43.757 23.084,49.638 28.171,50.199 					"/>
				</g>
			</g>
		</g>
		<g>
			<g>
				<g>
					<defs>
						<polygon id="SVGID_20_" points="75.529,65.947 39.763,86.596 4,65.947 4,24.649 39.763,4 75.529,24.649 						"/>
					</defs>
					<clipPath id="SVGID_21_">
						<use xlink:href="#SVGID_20_"  style="overflow:visible;"/>
					</clipPath>
					<circle class="st9" cx="44.315" cy="37.899" r="2.274"/>
				</g>
			</g>
		</g>
		<g>
			<g>
				<g>
					<defs>
						<polygon id="SVGID_22_" points="75.529,65.947 39.763,86.596 4,65.947 4,24.649 39.763,4 75.529,24.649 						"/>
					</defs>
					<clipPath id="SVGID_23_">
						<use xlink:href="#SVGID_22_"  style="overflow:visible;"/>
					</clipPath>
					<polygon class="st25" points="53.146,34.585 49.349,53.316 45.832,53.089 					"/>
				</g>
			</g>
		</g>
	</g>
</g>
<g id="badge-scala">
	<g>
		<g>
			<polygon class="st88" points="75.53,65.947 39.765,86.596 4,65.947 4,24.649 39.765,4 75.53,24.649 			"/>
		</g>
		<g>
			<g>
				<g>
					<g>
						<defs>
							<polygon id="SVGID_24_" points="75.53,65.947 39.765,86.596 4,65.947 4,24.649 39.765,4 75.53,24.649 							"/>
						</defs>
						<clipPath id="SVGID_25_">
							<use xlink:href="#SVGID_24_"  style="overflow:visible;"/>
						</clipPath>
						<polyline class="st15" points="26.862,64.078 45.86,83.076 75.53,65.947 75.53,45.406 51.5,21.375 						"/>
					</g>
				</g>
			</g>
		</g>
		<path class="st31" d="M26.862,37.8c0,0,24.639,2.463,24.639,6.567v-9.854c0,0,0-4.106-24.639-6.569v3.81V37.8z"/>
		<path class="st31" d="M26.862,50.938c0,0,24.639,2.464,24.639,6.571v-9.855c0,0,0-4.106-24.639-6.57V50.938z"/>
		<path class="st60" d="M51.5,21.375v9.854c0,0,0,4.104-24.639,6.568v-9.854C26.862,27.945,51.5,25.481,51.5,21.375z"/>
		<path class="st60" d="M26.862,41.084c0,0,24.639-2.463,24.639-6.567v9.854c0,0,0,4.106-24.639,6.569V41.084z"/>
		<path class="st60" d="M26.862,64.078v-9.854c0,0,24.639-2.464,24.639-6.569v9.855C51.5,57.509,51.5,61.614,26.862,64.078z"/>
	</g>
</g>
<g id="badge-go">
	<polygon class="st82" points="75.528,65.947 39.764,86.596 4,65.947 4,24.649 39.764,4 75.528,24.649 	"/>
	<g>
		<g>
			<g>
				<g>
					<defs>
						<polygon id="SVGID_26_" points="75.528,65.947 39.764,86.596 4,65.947 4,24.649 39.764,4 75.528,24.649 						"/>
					</defs>
					<clipPath id="SVGID_27_">
						<use xlink:href="#SVGID_26_"  style="overflow:visible;"/>
					</clipPath>
					<circle class="st33" cx="55.338" cy="33.369" r="4.569"/>
				</g>
			</g>
		</g>
		<g>
			<g>
				<g>
					<defs>
						<polygon id="SVGID_28_" points="75.528,65.947 39.764,86.596 4,65.947 4,24.649 39.764,4 75.528,24.649 						"/>
					</defs>
					<clipPath id="SVGID_29_">
						<use xlink:href="#SVGID_28_"  style="overflow:visible;"/>
					</clipPath>
					<circle class="st96" cx="55.338" cy="33.369" r="1.917"/>
				</g>
			</g>
		</g>
		<g>
			<g>
				<g>
					<defs>
						<polygon id="SVGID_30_" points="75.528,65.947 39.764,86.596 4,65.947 4,24.649 39.764,4 75.528,24.649 						"/>
					</defs>
					<clipPath id="SVGID_31_">
						<use xlink:href="#SVGID_30_"  style="overflow:visible;"/>
					</clipPath>
					<circle class="st84" cx="24.322" cy="33.369" r="4.568"/>
				</g>
			</g>
		</g>
		<g>
			<g>
				<g>
					<defs>
						<polygon id="SVGID_32_" points="75.528,65.947 39.764,86.596 4,65.947 4,24.649 39.764,4 75.528,24.649 						"/>
					</defs>
					<clipPath id="SVGID_33_">
						<use xlink:href="#SVGID_32_"  style="overflow:visible;"/>
					</clipPath>
					<circle class="st38" cx="24.321" cy="33.369" r="1.917"/>
				</g>
			</g>
		</g>
		<g>
			<g>
				<g>
					<defs>
						<polygon id="SVGID_34_" points="75.528,65.947 39.764,86.596 4,65.947 4,24.649 39.764,4 75.528,24.649 						"/>
					</defs>
					<clipPath id="SVGID_35_">
						<use xlink:href="#SVGID_34_"  style="overflow:visible;"/>
					</clipPath>
					<g class="st77">
						<path class="st51" d="M58.156,44.492c0,10.116-8.277,18.396-18.394,18.396c-10.117,0-18.396-8.277-18.396-18.396
							c0-10.119,8.277-18.395,18.396-18.395C49.879,26.097,58.156,34.375,58.156,44.492z"/>
					</g>
				</g>
			</g>
		</g>
		<g>
			<g>
				<g>
					<defs>
						<polygon id="SVGID_36_" points="75.528,65.947 39.764,86.596 4,65.947 4,24.649 39.764,4 75.528,24.649 						"/>
					</defs>
					<clipPath id="SVGID_37_">
						<use xlink:href="#SVGID_36_"  style="overflow:visible;"/>
					</clipPath>
					<polygon class="st28" points="39.764,86.596 58.156,75.977 58.156,44.492 21.369,44.492 21.369,75.976 					"/>
				</g>
			</g>
		</g>
	</g>
	<circle class="st60" cx="30.987" cy="39.72" r="6.352"/>
	<circle class="st60" cx="48.985" cy="39.72" r="6.352"/>
	<circle class="st60" cx="38.611" cy="54.452" r="1.157"/>
	<rect x="37.454" y="50.783" class="st60" width="2.313" height="3.668"/>
	<circle class="st60" cx="41.487" cy="54.452" r="1.156"/>
	<rect x="40.33" y="50.783" class="st60" width="2.312" height="3.668"/>
	<circle class="st93" cx="46.513" cy="40.039" r="1.918"/>
	<circle class="st93" cx="28.016" cy="40.039" r="1.917"/>
	<circle class="st51" cx="60.565" cy="55.419" r="1.896"/>
	<rect x="56.293" y="53.523" class="st51" width="4.271" height="3.792"/>
	<circle class="st51" cx="18.961" cy="55.419" r="1.896"/>
	<rect x="18.961" y="53.523" class="st51" width="4.271" height="3.792"/>
	<ellipse class="st1" cx="43.656" cy="49.891" rx="1.904" ry="1.89"/>
	<ellipse class="st1" cx="36.526" cy="49.891" rx="1.904" ry="1.89"/>
	<path class="st1" d="M37.338,51.597c1.317-0.814,3.396-1.354,5.156-0.218c1.76,1.141,2.375-2.939,2.375-2.939
		c-2.062-1.291-6.041-1.886-9.395-0.124L37.338,51.597z"/>
	<ellipse class="st93" cx="40.131" cy="47.217" rx="2.824" ry="1.68"/>
</g>
<g id="badge-elixir">
	<polygon class="st19" points="75.529,65.948 39.765,86.597 4,65.948 4,24.649 39.765,4 75.529,24.649 	"/>
	<g>
		<g>
			<g>
				<g>
					<defs>
						<polygon id="SVGID_38_" points="75.529,65.948 39.765,86.597 4,65.948 4,24.649 39.765,4 75.529,24.649 						"/>
					</defs>
					<clipPath id="SVGID_39_">
						<use xlink:href="#SVGID_38_"  style="overflow:visible;"/>
					</clipPath>
					<polyline class="st91" points="26.504,61.474 47.287,82.255 75.529,65.948 75.527,50.291 41.474,16.237 					"/>
				</g>
			</g>
		</g>
	</g>
	<path class="st60" d="M41.474,16.237c0,18.499,15.394,21.301,15.394,33.506c0,9.816-6.369,17.875-16.724,17.875
		c-7.967,0-17.239-4.875-17.239-17.609C22.902,36.212,36.966,16.237,41.474,16.237z"/>
	<path class="st46" d="M56.32,45.962c-0.521,3.435-7.695,6.153-16.5,6.153c-8.979,0-16.271-2.829-16.522-6.354
		c-0.253,1.459-0.396,2.886-0.396,4.248c0,1.645,0.157,3.151,0.444,4.541c2.104,3.637,8.646,6.287,16.398,6.287
		c8.152,0,14.965-2.936,16.686-6.858c0.275-1.362,0.435-2.774,0.435-4.233C56.865,48.375,56.664,47.13,56.32,45.962z"/>
	<path class="st46" d="M54.274,59.766c-4.053-0.219-10.413-5.271-15.866-13.024c-4.981-7.088-7.832-14.48-7.709-19.121l-1.681,2.732
		c-3.104,2.75-0.498,12.263,5.818,21.247c6.318,8.983,13.953,14.041,17.055,11.291L54.274,59.766z"/>
	<path class="st46" d="M42.129,22.453c-8.174,2.994-14.688,9.838-17.651,18.525c-0.978,3.119-1.574,6.204-1.574,9.03
		c0,7.8,3.486,12.639,8.014,15.229c-0.982-2.909-1.531-6.039-1.531-9.312c0-11.562,6.676-21.439,16.113-25.45
		C44.054,28.199,42.834,25.606,42.129,22.453z"/>
	<path class="st83" d="M29.961,64.653c2.938,1.963,6.425,2.872,9.729,2.948c7.301-6.147,12.094-16.495,12.094-28.229
		c0-0.344-0.029-0.678-0.037-1.019c-1.188-1.41-2.461-2.833-3.699-4.367C47.586,48.101,40.195,60.009,29.961,64.653z"/>
</g>
<g id="badge-java">
	<polygon class="st20" points="75.528,65.948 39.763,86.597 4,65.948 4,24.649 39.763,4 75.528,24.649 	"/>
	<ellipse class="st60" cx="38.431" cy="56.475" rx="7.551" ry="4.999"/>
	<ellipse class="st92" cx="38.433" cy="41.39" rx="13.083" ry="7.037"/>
	<g>
		<g>
			<ellipse id="SVGID_52_" class="st11" cx="38.431" cy="45.369" rx="10.823" ry="5.822"/>
		</g>
		<g>
			<g>
				<g>
					<defs>
						<ellipse id="SVGID_40_" cx="38.431" cy="45.369" rx="10.823" ry="5.822"/>
					</defs>
					<clipPath id="SVGID_41_">
						<use xlink:href="#SVGID_40_"  style="overflow:visible;"/>
					</clipPath>
					<ellipse class="st41" cx="38.431" cy="45.369" rx="10.823" ry="5.822"/>
				</g>
			</g>
		</g>
		<g>
			<g>
				<g>
					<defs>
						<ellipse id="SVGID_42_" cx="38.431" cy="45.369" rx="10.823" ry="5.822"/>
					</defs>
					<clipPath id="SVGID_43_">
						<use xlink:href="#SVGID_42_"  style="overflow:visible;"/>
					</clipPath>
					<path class="st69" d="M55.126,53.286H27.989v-7.027c2,1.343,4.922,2.203,8.354,2.203c4.688,0,8.617-1.69,10.121-3.934
						C46.467,44.528,54.464,45.286,55.126,53.286z"/>
				</g>
			</g>
		</g>
	</g>
	<path class="st60" d="M45.68,57.093c-0.916,2-3.812,2.482-7.25,2.482c-3.437,0-6.338-0.916-7.25-2.268l-0.176,0.039
		c-6.722-8.396-6.017-15.713-6.017-15.713v-0.248c0,3.889,6.039,7.037,13.265,7.037c7.228,0,13.174-3.148,13.174-7.037l0.041,0.104
		c0,0,0.933,7.6-5.789,15.6L45.68,57.093L45.68,57.093z"/>
	<g>
		<path class="st60" d="M38.237,36.351c6.455,0,11.278,2.659,11.278,5.036c0,2.378-4.823,5.037-11.278,5.037
			S26.96,43.765,26.96,41.387C26.96,39.011,31.782,36.351,38.237,36.351 M38.237,34.351c-7.334,0-13.277,3.149-13.277,7.036
			c0,3.887,5.943,7.037,13.277,7.037s13.279-3.15,13.279-7.037C51.516,37.503,45.571,34.351,38.237,34.351L38.237,34.351z"/>
	</g>
	<path class="st89" d="M51.292,42.097c3.449,0,6.242,2.799,6.242,6.248c0,3.446-2.797,6.248-6.246,6.248c-3.448,0-5.299,0-5.299,0"
		/>
	<path class="st89" d="M51.292,42.097c3.449,0,6.242,2.799,6.242,6.248c0,3.446-2.797,6.248-6.246,6.248c-3.448,0-5.299,0-5.299,0"
		/>
	<path class="st45" d="M51.338,42.759c2.237,0,4.167,1.316,5.056,3.22"/>
	<line class="st45" x1="46.989" y1="55.593" x2="52.989" y2="55.593"/>
	<path class="st45" d="M31.778,55.523c-2.812-3.767-3.914-7.201-4.347-9.321"/>
	<path class="st14" d="M48.161,24.609c-1.182,3.985-4.273,6.562-5.729,7.778"/>
	<path class="st14" d="M31.778,33.488c-0.654-4.688,2.062-6.957,4.248-8.78c0.658-0.552,1.176-1.021,1.565-1.438"/>
	<path class="st14" d="M43.356,19.316c1.252,4.744-2.248,7.663-4.127,9.23c-2.242,1.872-2.742,2.488-2.498,4.248"/>
</g>
<g id="badge-erlang">
	<polygon class="st24" points="75.531,65.948 39.764,86.597 4,65.948 4,24.649 39.764,4 75.531,24.649 	"/>
	<g>
		<g>
			<g>
				<g>
					<defs>
						<rect id="SVGID_44_" x="5.49" y="28.395" width="69.074" height="31.63"/>
					</defs>
					<clipPath id="SVGID_45_">
						<use xlink:href="#SVGID_44_"  style="overflow:visible;"/>
					</clipPath>
					<path class="st12" d="M51.824,49.904c0,0-4.076,7.266-10.102,7.266s-9.217-6.731-9.217-11.873c0-0.465,0.004-0.902,0.008-1.32
						h24.842v-1.998l-0.037-0.058c-0.025-13.773-9.637-16.006-19.674-16.006c-9.221,0-19.135,4.766-19.135,19.135
						c0,14.371,11.758,18.751,20.826,18.751c15.293,0,18.979-10.604,18.979-10.604L51.824,49.904z M38.34,31.909
						c6.529,0,5.916,5.61,5.916,5.61H32.822C32.977,36.85,34.256,31.909,38.34,31.909z"/>
				</g>
			</g>
		</g>
	</g>
</g>
<g id="badge-clojure">
	<g>
		<polygon class="st37" points="75.532,65.948 39.767,86.597 4.002,65.948 4.002,24.649 39.767,4 75.532,24.649 		"/>
	</g>
	<g>
		<g>
			<g>
				<g>
					<defs>
						<polygon id="SVGID_46_" points="75.532,65.948 39.767,86.597 4.002,65.948 4.002,24.649 39.767,4 75.532,24.649 						"/>
					</defs>
					<clipPath id="SVGID_47_">
						<use xlink:href="#SVGID_46_"  style="overflow:visible;"/>
					</clipPath>
					<path class="st70" d="M75.532,65.948l0.001-12.551L54.898,32.762c2.478,5.774,3.66,9.392,3.66,13.281
						c0,10.38-8.414,18.794-18.793,18.794c-4.418,0-8.481-1.523-14.729-3.771l21.541,21.541L75.532,65.948z"/>
				</g>
			</g>
		</g>
		<g>
			<g>
				<g>
					<defs>
						<polygon id="SVGID_48_" points="75.532,65.948 39.767,86.597 4.002,65.948 4.002,24.649 39.767,4 75.532,24.649 						"/>
					</defs>
					<clipPath id="SVGID_49_">
						<use xlink:href="#SVGID_48_"  style="overflow:visible;"/>
					</clipPath>
					<polygon class="st79" points="4.045,24.675 49.883,70.514 59.3,54.593 28.306,31.158 15.42,26.058 					"/>
				</g>
			</g>
		</g>
		<g>
			<g>
				<g>
					<defs>
						<polygon id="SVGID_50_" points="75.532,65.948 39.767,86.597 4.002,65.948 4.002,24.649 39.767,4 75.532,24.649 						"/>
					</defs>
					<clipPath id="SVGID_51_">
						<use xlink:href="#SVGID_50_"  style="overflow:visible;"/>
					</clipPath>
					<circle class="st18" cx="39.57" cy="45.63" r="18.99"/>
				</g>
			</g>
		</g>
	</g>
	<circle class="st89" cx="39.767" cy="46.046" r="18.793"/>
	<g>
		<g>
			<g>
				<g>
					<defs>
						<polygon id="SVGID_53_" points="75.491,65.925 39.767,86.55 4.045,65.925 4.045,24.675 39.767,4.049 75.491,24.675 						"/>
					</defs>
					<clipPath id="SVGID_54_">
						<use xlink:href="#SVGID_53_"  style="overflow:visible;"/>
					</clipPath>
					<path class="st40" d="M75.491,63.111c-2.54,0.688-5.212,1.058-7.971,1.058c-11.977,0-22.33-6.938-27.262-17.02l-1.997-4.393
						c-4.931-10.077-15.284-17.021-27.26-17.021c-2.41,0-4.754,0.281-7.002,0.812"/>
				</g>
			</g>
		</g>
	</g>
	<line class="st89" x1="39.767" y1="44.192" x2="30.579" y2="62.438"/>
</g>
<g id="badge-lua">
	<g>
		<polygon class="st74" points="75.531,65.948 39.766,86.597 4,65.948 4,24.649 39.766,4 75.531,24.649 		"/>
	</g>
	<g>
		<g>
			<g>
				<g>
					<defs>
						<polygon id="SVGID_55_" points="75.531,65.948 39.766,86.597 4,65.948 4,24.649 39.766,4 75.531,24.649 						"/>
					</defs>
					<clipPath id="SVGID_56_">
						<use xlink:href="#SVGID_55_"  style="overflow:visible;"/>
					</clipPath>
					<polyline class="st71" points="27.723,54.99 52.168,79.434 75.531,65.948 75.529,58.998 50.861,34.329 					"/>
				</g>
			</g>
		</g>
		<g>
			<g>
				<g>
					<defs>
						<polygon id="SVGID_57_" points="75.531,65.948 39.766,86.597 4,65.948 4,24.649 39.766,4 75.531,24.649 						"/>
					</defs>
					<clipPath id="SVGID_58_">
						<use xlink:href="#SVGID_57_"  style="overflow:visible;"/>
					</clipPath>
					<polyline class="st80" points="59.258,27.946 75.531,44.22 75.529,56.31 52.732,33.514 					"/>
				</g>
			</g>
		</g>
	</g>
	<circle class="st60" cx="39.766" cy="45.299" r="15.46"/>
	<g>
		<circle class="st22" cx="39.766" cy="45.299" r="21.57"/>
	</g>
	<circle class="st60" cx="55.289" cy="29.902" r="4.428"/>
	<circle class="st74" cx="44.637" cy="40.553" r="4.428"/>
</g>
<g id="badge-c">
	<g>
		<polygon class="st63" points="75.529,65.948 39.764,86.597 4,65.948 4,24.649 39.764,4 75.529,24.649 		"/>
	</g>
	<g>
		<g>
			<g>
				<g>
					<defs>
						<polygon id="SVGID_59_" points="75.529,65.948 39.764,86.597 4,65.948 4,24.649 39.764,4 75.529,24.649 						"/>
					</defs>
					<clipPath id="SVGID_60_">
						<use xlink:href="#SVGID_59_"  style="overflow:visible;"/>
					</clipPath>
					<polygon class="st68" points="22.495,60.759 45.193,83.458 75.529,65.948 75.529,47.824 54.959,27.253 39.764,25.882 
						22.495,36.427 					"/>
				</g>
			</g>
		</g>
	</g>
	<path class="st6" d="M57.549,37.521c-3-6.851-9.83-11.642-17.784-11.642c-10.727,0-19.417,8.694-19.417,19.417
		c0,10.726,8.69,19.417,19.417,19.417c7.955,0,14.784-4.79,17.784-11.64"/>
</g>
<g id="badge-rust">
	<g>
		<polygon class="st65" points="75.529,65.948 39.764,86.598 4,65.948 4,24.65 39.764,4 75.529,24.65 		"/>
	</g>
	<g>
		<g>
			<polygon id="SVGID_64_" class="st44" points="75.529,65.948 39.764,86.598 4,65.948 4,24.65 39.764,4 75.529,24.65 			"/>
		</g>
		<g>
			<g>
				<g>
					<defs>
						<polygon id="SVGID_61_" points="75.529,65.948 39.764,86.598 4,65.948 4,24.65 39.764,4 75.529,24.65 						"/>
					</defs>
					<clipPath id="SVGID_62_">
						<use xlink:href="#SVGID_61_"  style="overflow:visible;"/>
					</clipPath>
					<polygon class="st26" points="39.137,23.159 40.13,21.856 43.191,24.915 44.619,22.149 47.719,25.25 49.085,23.578 
						52.205,26.697 53.039,25.639 56.619,29.218 56.705,28.631 75.527,47.453 75.529,65.948 43.757,84.296 22.27,62.807 
						22.675,62.44 19.555,59.319 20.145,58.139 17.332,55.327 18.48,53.496 15.887,50.902 17.723,48.581 15.246,46.104 
						25.667,30.081 					"/>
				</g>
			</g>
		</g>
	</g>
	<path id="path3" class="st86" d="M63.482,45.2l-2.039-1.262c-0.019-0.199-0.037-0.396-0.059-0.596l1.752-1.634
		c0.178-0.167,0.258-0.412,0.211-0.647c-0.048-0.24-0.216-0.438-0.443-0.521l-2.238-0.836c-0.057-0.195-0.113-0.387-0.176-0.578
		l1.396-1.938c0.143-0.197,0.172-0.453,0.078-0.681c-0.093-0.224-0.296-0.385-0.535-0.424l-2.359-0.384
		c-0.094-0.179-0.188-0.355-0.283-0.53l0.99-2.178c0.104-0.223,0.082-0.48-0.055-0.682c-0.136-0.201-0.363-0.32-0.605-0.312
		l-2.396,0.084c-0.123-0.156-0.25-0.309-0.378-0.46l0.552-2.334c0.058-0.237-0.016-0.485-0.188-0.657
		c-0.172-0.172-0.42-0.24-0.658-0.188l-2.333,0.551c-0.149-0.128-0.305-0.255-0.46-0.378l0.084-2.397
		c0.012-0.24-0.107-0.473-0.311-0.605c-0.203-0.137-0.459-0.156-0.684-0.057l-2.178,0.993c-0.176-0.097-0.354-0.19-0.529-0.284
		l-0.386-2.36c-0.039-0.239-0.198-0.442-0.424-0.535c-0.226-0.093-0.479-0.063-0.679,0.079l-1.94,1.396
		c-0.188-0.061-0.383-0.118-0.578-0.175l-0.836-2.239c-0.086-0.229-0.278-0.396-0.521-0.441c-0.238-0.048-0.481,0.03-0.647,0.209
		l-1.636,1.754c-0.196-0.021-0.396-0.042-0.594-0.061l-1.264-2.038c-0.127-0.204-0.354-0.332-0.597-0.332s-0.47,0.127-0.597,0.332
		l-1.262,2.038c-0.199,0.019-0.396,0.037-0.595,0.061l-1.635-1.754c-0.166-0.179-0.412-0.257-0.649-0.209
		c-0.238,0.048-0.438,0.215-0.521,0.441l-0.838,2.239c-0.192,0.057-0.385,0.114-0.575,0.175l-1.94-1.396
		c-0.197-0.145-0.453-0.174-0.678-0.079c-0.227,0.093-0.389,0.296-0.426,0.535l-0.387,2.36c-0.179,0.094-0.354,0.188-0.529,0.284
		l-2.178-0.993c-0.222-0.102-0.479-0.08-0.681,0.057c-0.202,0.135-0.319,0.365-0.312,0.605l0.082,2.397
		c-0.153,0.123-0.311,0.25-0.459,0.378l-2.334-0.551c-0.237-0.057-0.485,0.016-0.657,0.188c-0.173,0.172-0.242,0.42-0.188,0.657
		l0.551,2.334c-0.127,0.151-0.254,0.304-0.377,0.46l-2.396-0.084c-0.241-0.008-0.473,0.109-0.605,0.312
		c-0.138,0.199-0.156,0.459-0.058,0.682l0.993,2.178c-0.098,0.175-0.191,0.354-0.284,0.53l-2.36,0.384
		c-0.238,0.039-0.44,0.2-0.535,0.424c-0.092,0.228-0.062,0.48,0.08,0.681l1.396,1.938c-0.062,0.191-0.121,0.383-0.178,0.578
		l-2.238,0.836c-0.229,0.086-0.396,0.281-0.439,0.521c-0.049,0.236,0.029,0.48,0.209,0.647l1.752,1.634
		c-0.021,0.197-0.041,0.396-0.059,0.596L15.592,45.2c-0.207,0.127-0.332,0.353-0.332,0.597c0,0.243,0.125,0.47,0.332,0.595
		l2.039,1.264c0.018,0.197,0.035,0.396,0.059,0.595l-1.752,1.634c-0.18,0.166-0.258,0.412-0.209,0.649
		c0.047,0.239,0.215,0.436,0.439,0.521l2.238,0.84c0.057,0.191,0.115,0.386,0.178,0.575l-1.396,1.94
		c-0.144,0.197-0.172,0.454-0.08,0.679c0.095,0.226,0.297,0.385,0.537,0.423l2.358,0.385c0.093,0.181,0.188,0.355,0.284,0.531
		l-0.993,2.178c-0.101,0.222-0.08,0.479,0.058,0.682c0.135,0.202,0.364,0.321,0.605,0.311l2.396-0.084
		c0.125,0.156,0.252,0.312,0.379,0.461l-0.549,2.334c-0.059,0.236,0.014,0.484,0.187,0.656c0.172,0.173,0.42,0.242,0.657,0.188
		l2.334-0.549c0.148,0.129,0.306,0.254,0.459,0.377l-0.082,2.396c-0.01,0.244,0.105,0.476,0.312,0.609
		c0.201,0.135,0.459,0.153,0.681,0.054l2.179-0.992c0.177,0.1,0.353,0.192,0.53,0.284l0.386,2.36
		c0.036,0.238,0.198,0.441,0.425,0.536c0.223,0.093,0.479,0.062,0.678-0.078l1.938-1.398c0.19,0.062,0.386,0.12,0.577,0.179
		l0.838,2.235c0.084,0.229,0.281,0.396,0.521,0.442c0.237,0.049,0.482-0.032,0.648-0.21l1.636-1.752
		c0.193,0.021,0.396,0.043,0.596,0.061l1.26,2.037c0.129,0.205,0.354,0.332,0.599,0.332c0.241,0,0.469-0.126,0.597-0.332
		l1.262-2.037c0.199-0.018,0.396-0.037,0.595-0.061l1.635,1.752c0.164,0.178,0.41,0.259,0.647,0.21
		c0.238-0.047,0.437-0.215,0.521-0.442l0.836-2.235c0.193-0.059,0.389-0.116,0.578-0.179l1.939,1.398
		c0.195,0.141,0.455,0.171,0.68,0.078c0.225-0.095,0.385-0.298,0.424-0.536l0.385-2.36c0.18-0.092,0.354-0.188,0.529-0.284
		l2.178,0.992c0.223,0.104,0.479,0.081,0.682-0.054c0.201-0.138,0.318-0.365,0.312-0.609l-0.084-2.396
		c0.154-0.123,0.311-0.248,0.459-0.377l2.334,0.549c0.237,0.057,0.486-0.014,0.658-0.188c0.172-0.172,0.242-0.42,0.188-0.656
		l-0.551-2.334c0.127-0.149,0.254-0.305,0.377-0.461l2.396,0.084c0.24,0.013,0.473-0.106,0.605-0.311
		c0.135-0.203,0.155-0.46,0.055-0.682l-0.99-2.178c0.098-0.176,0.189-0.353,0.281-0.531l2.361-0.385
		c0.239-0.038,0.442-0.197,0.534-0.423c0.095-0.225,0.063-0.479-0.077-0.679l-1.396-1.94c0.062-0.189,0.117-0.384,0.177-0.575
		l2.237-0.84c0.229-0.085,0.396-0.279,0.439-0.521c0.049-0.239-0.031-0.483-0.209-0.649l-1.752-1.634
		c0.021-0.197,0.041-0.396,0.061-0.595l2.037-1.264c0.207-0.125,0.334-0.352,0.334-0.595C63.814,45.554,63.688,45.327,63.482,45.2
		L63.482,45.2z M49.84,62.106c-0.777-0.167-1.271-0.936-1.105-1.715c0.166-0.78,0.936-1.275,1.711-1.107
		c0.779,0.166,1.273,0.935,1.106,1.714C51.384,61.776,50.619,62.274,49.84,62.106z M49.148,57.422
		c-0.711-0.149-1.406,0.301-1.562,1.012l-0.726,3.377c-2.231,1.016-4.713,1.576-7.323,1.576c-2.671,0-5.205-0.591-7.479-1.646
		l-0.724-3.376c-0.151-0.712-0.853-1.164-1.562-1.012l-2.98,0.641c-0.555-0.57-1.068-1.176-1.541-1.817h14.506
		c0.164,0,0.271-0.027,0.271-0.179v-5.131c0-0.149-0.107-0.179-0.271-0.179h-4.242v-3.253h4.588c0.418,0,2.239,0.119,2.821,2.445
		c0.185,0.715,0.583,3.043,0.854,3.789c0.271,0.836,1.385,2.505,2.566,2.505h7.229c0.082,0,0.17-0.009,0.264-0.023
		c-0.502,0.682-1.053,1.323-1.646,1.929L49.148,57.422L49.148,57.422z M29.085,62.037c-0.778,0.168-1.545-0.329-1.712-1.108
		c-0.167-0.779,0.329-1.548,1.105-1.716c0.777-0.166,1.545,0.329,1.713,1.11C30.359,61.1,29.863,61.87,29.085,62.037z
		 M23.583,39.723c0.321,0.729-0.006,1.582-0.733,1.905c-0.728,0.323-1.578-0.006-1.902-0.733c-0.32-0.729,0.008-1.582,0.734-1.904
		C22.41,38.665,23.259,38.995,23.583,39.723z M21.893,43.733l3.104-1.381c0.662-0.295,0.963-1.071,0.668-1.736l-0.642-1.446h2.517
		v11.339h-5.074c-0.438-1.549-0.676-3.182-0.676-4.869C21.791,44.995,21.826,44.358,21.893,43.733z M35.52,42.631v-3.342h5.989
		c0.312,0,2.187,0.357,2.187,1.76c0,1.164-1.438,1.582-2.621,1.582H35.52L35.52,42.631z M57.289,45.639
		c0,0.443-0.018,0.884-0.049,1.317h-1.82c-0.186,0-0.256,0.12-0.256,0.298v0.838c0,1.969-1.111,2.396-2.084,2.506
		c-0.928,0.104-1.952-0.389-2.078-0.953c-0.549-3.074-1.459-3.729-2.896-4.865c1.785-1.133,3.645-2.807,3.645-5.042
		c0-2.415-1.656-3.938-2.785-4.687c-1.584-1.043-3.338-1.253-3.812-1.253H26.318c2.554-2.85,6.015-4.869,9.931-5.604l2.22,2.33
		c0.502,0.523,1.334,0.544,1.857,0.042l2.482-2.376c5.205,0.969,9.61,4.209,12.149,8.652l-1.699,3.84
		c-0.293,0.666,0.007,1.442,0.669,1.737l3.272,1.454C57.259,44.456,57.289,45.043,57.289,45.639z M38.468,26.213
		c0.574-0.551,1.487-0.529,2.037,0.047c0.552,0.578,0.529,1.49-0.047,2.042c-0.575,0.552-1.487,0.529-2.039-0.048
		C37.871,27.678,37.893,26.764,38.468,26.213z M55.343,39.793c0.322-0.729,1.175-1.058,1.9-0.732
		c0.728,0.322,1.057,1.176,0.731,1.903c-0.322,0.729-1.174,1.06-1.901,0.734C55.35,41.375,55.021,40.523,55.343,39.793z"/>
</g>
<g id="badge-perl">
	<g>
		<g>
			<polygon class="st29" points="75.529,65.948 39.764,86.598 4,65.948 4,24.65 39.764,4 75.529,24.65 			"/>
		</g>
		<g>
			<polygon class="st81" points="75.529,65.948 39.764,86.598 4,65.948 4,24.65 39.764,4 75.529,24.65 			"/>
		</g>
	</g>
	<g>
		<g>
			<g>
				<g>
					<defs>
						<polygon id="SVGID_63_" points="75.529,65.948 39.764,86.598 4,65.948 4,24.65 39.764,4 75.529,24.65 						"/>
					</defs>
					<clipPath id="SVGID_65_">
						<use xlink:href="#SVGID_63_"  style="overflow:visible;"/>
					</clipPath>
					<polyline class="st3" points="26.287,53.848 51.979,79.54 75.529,65.948 75.531,61.916 48.986,35.372 					"/>
				</g>
			</g>
		</g>
	</g>
	<circle class="st60" cx="38.195" cy="45.3" r="14.663"/>
	<path class="st87" d="M49.164,35.589c0.232,1.077,0.367,2.193,0.367,3.341c0,8.6-6.972,15.568-15.566,15.568
		c-3.348,0-6.439-1.064-8.977-2.863c2.362,4.922,7.383,8.327,13.207,8.327c8.1,0,14.664-6.562,14.664-14.663
		C52.859,41.571,51.455,38.176,49.164,35.589z"/>
</g>
<g id="badge-lisp">
	<polygon class="st62" points="75.529,65.947 39.765,86.597 4,65.947 4,24.649 39.765,4 75.529,24.649 	"/>
	<g>
		<g>
			<g>
				<g>
					<defs>
						<polygon id="SVGID_66_" points="75.529,65.947 39.765,86.597 4,65.947 4,24.649 39.765,4 75.529,24.649 						"/>
					</defs>
					<clipPath id="SVGID_67_">
						<use xlink:href="#SVGID_66_"  style="overflow:visible;"/>
					</clipPath>
					<polygon class="st78" points="75.529,64.151 75.528,52.538 56.168,33.177 51.379,34.065 44.404,27.091 39.767,25.931 
						27.183,32.499 22.351,43.509 20.693,56.735 28.246,64.287 28.01,68.25 43.943,84.183 					"/>
				</g>
			</g>
		</g>
	</g>
	<circle class="st60" cx="39.767" cy="33.177" r="10.333"/>
	<path class="st32" d="M49.154,33.177c4.633,0,8.389,3.756,8.389,8.391v20.396"/>
	<path class="st32" d="M31.377,33.177c-4.633,0-8.389,3.756-8.389,8.391v14.068"/>
	<path class="st32" d="M50.543,58.179V41.568c0-0.768-0.623-1.391-1.389-1.391l-2.844-2.382"/>
	<path class="st32" d="M29.988,66.513V41.568c0-0.768,0.623-1.391,1.389-1.391l2.842-2.382"/>
	<line class="st32" x1="36.869" y1="40.267" x2="36.869" y2="58.179"/>
	<line class="st32" x1="43.662" y1="40.267" x2="43.662" y2="64.151"/>
	<circle class="st62" cx="39.522" cy="36.795" r="2.134"/>
	<circle class="st62" cx="39.522" cy="28.156" r="2.134"/>
	<circle class="st62" cx="35.203" cy="32.475" r="2.134"/>
	<circle class="st62" cx="43.842" cy="32.475" r="2.134"/>
</g>
<g id="badge-none">
	<polygon class="st16" points="75.529,65.947 39.765,86.598 4,65.947 4,24.65 39.765,4 75.529,24.65 	"/>
	<g>
		<g>
			<g>
				<g>
					<defs>
						<polygon id="SVGID_68_" points="75.529,65.947 39.765,86.598 4,65.947 4,24.65 39.765,4 75.529,24.65 						"/>
					</defs>
					<clipPath id="SVGID_69_">
						<use xlink:href="#SVGID_68_"  style="overflow:visible;"/>
					</clipPath>
					<polygon class="st35" points="56.733,43.51 52.403,44.066 41.24,28.156 40.545,44.831 22.675,46.289 44.217,84.026 
						71.982,67.993 					"/>
				</g>
			</g>
		</g>
	</g>
	
		<use xlink:href="#New_Symbol"  width="3" height="33.941" x="-1.5" y="-16.971" transform="matrix(1 0 0 -1 39.79 45.0859)" style="overflow:visible;"/>
	<line class="st89" x1="56.761" y1="45.087" x2="22.819" y2="45.087"/>
</g>
<g id="logo-horizontal">
	<g id="_x3E_logotype">
		<path class="st95" d="M47.137,11.311l8.918,12.938h0.043V11.311h1.459v15.306h-1.629L47.01,13.669h-0.043v12.948h-1.459V11.311
			H47.137z"/>
		<path class="st95" d="M70.59,11.311l6.004,15.306h-1.561l-1.865-4.76h-6.963l-1.855,4.76h-1.543l6.156-15.306H70.59z
			 M72.67,20.614l-2.959-7.847l-3.064,7.847H72.67L72.67,20.614z"/>
		<path class="st95" d="M83.453,11.311l8.918,12.938h0.043V11.311h1.459v15.306h-1.631l-8.918-12.948h-0.043v12.948h-1.457V11.311
			H83.453z"/>
		<path class="st95" d="M100.432,15.941c0.301-0.957,0.75-1.812,1.355-2.54c0.6-0.736,1.354-1.321,2.262-1.758
			c0.906-0.438,1.961-0.654,3.162-0.654c1.197,0,2.25,0.219,3.145,0.654c0.9,0.437,1.65,1.021,2.252,1.758
			c0.605,0.729,1.062,1.583,1.355,2.54c0.301,0.958,0.451,1.965,0.451,3.021c0,1.062-0.15,2.065-0.451,3.022
			c-0.299,0.957-0.75,1.801-1.355,2.521c-0.602,0.729-1.352,1.312-2.252,1.747c-0.895,0.438-1.938,0.652-3.145,0.652
			c-1.209,0-2.256-0.219-3.162-0.652c-0.908-0.436-1.662-1.02-2.262-1.747c-0.605-0.729-1.062-1.562-1.355-2.521
			c-0.301-0.957-0.449-1.979-0.449-3.022C99.983,17.919,100.133,16.899,100.432,15.941z M101.772,21.418
			c0.23,0.812,0.564,1.529,1.029,2.166c0.465,0.636,1.062,1.146,1.791,1.531c0.73,0.387,1.6,0.58,2.615,0.58
			c1.014,0,1.883-0.193,2.604-0.58c0.73-0.385,1.314-0.896,1.779-1.531c0.463-0.637,0.809-1.354,1.027-2.166
			c0.223-0.807,0.334-1.625,0.334-2.454c0-0.845-0.111-1.665-0.334-2.466c-0.221-0.8-0.564-1.519-1.027-2.154
			c-0.465-0.636-1.059-1.146-1.779-1.521c-0.723-0.396-1.592-0.578-2.604-0.578c-1.016,0-1.887,0.188-2.615,0.578
			c-0.729,0.387-1.326,0.896-1.791,1.521c-0.465,0.646-0.809,1.354-1.029,2.154c-0.221,0.801-0.332,1.622-0.332,2.466
			C101.44,19.793,101.551,20.612,101.772,21.418z"/>
		<path class="st95" d="M127.016,11.311c0.643,0,1.262,0.061,1.855,0.182c0.594,0.122,1.104,0.329,1.561,0.622
			c0.449,0.293,0.812,0.679,1.082,1.157c0.271,0.479,0.408,1.062,0.408,1.789c0,0.396-0.064,0.772-0.193,1.17
			c-0.129,0.379-0.311,0.722-0.547,1.021c-0.232,0.312-0.514,0.566-0.836,0.781c-0.322,0.215-0.684,0.365-1.082,0.451v0.043
			c0.984,0.127,1.771,0.521,2.357,1.211c0.586,0.679,0.879,1.519,0.879,2.52c0,0.243-0.021,0.521-0.064,0.825
			c-0.043,0.312-0.129,0.621-0.258,0.942c-0.127,0.312-0.312,0.641-0.557,0.955c-0.244,0.312-0.568,0.588-0.98,0.812
			c-0.406,0.231-0.906,0.438-1.5,0.575c-0.594,0.146-1.305,0.229-2.133,0.229h-6.479V11.309h6.479v0.018L127.016,11.311
			L127.016,11.311z M127.016,18.022c0.586,0,1.094-0.068,1.521-0.205c0.43-0.146,0.785-0.32,1.061-0.562
			c0.287-0.229,0.5-0.512,0.646-0.82c0.143-0.312,0.215-0.646,0.215-1.013c0-1.915-1.15-2.873-3.451-2.873h-5.018v5.479
			L127.016,18.022L127.016,18.022z M127.016,25.374c0.543,0,1.059-0.048,1.543-0.14c0.486-0.104,0.914-0.271,1.287-0.504
			c0.371-0.244,0.664-0.568,0.879-0.979c0.213-0.407,0.32-0.918,0.32-1.532c0-0.979-0.346-1.727-1.039-2.219
			c-0.693-0.493-1.689-0.74-2.99-0.74h-5.018v6.109L127.016,25.374L127.016,25.374z"/>
		<path class="st95" d="M138.336,15.941c0.299-0.957,0.75-1.812,1.35-2.54c0.605-0.736,1.355-1.321,2.271-1.758
			c0.896-0.438,1.961-0.654,3.16-0.654c1.188,0,2.252,0.219,3.145,0.654c0.9,0.437,1.65,1.021,2.25,1.758
			c0.605,0.729,1.051,1.583,1.355,2.54c0.301,0.958,0.438,1.965,0.438,3.021c0,1.062-0.145,2.065-0.438,3.022
			c-0.312,0.957-0.75,1.801-1.355,2.521c-0.6,0.729-1.35,1.312-2.25,1.747c-0.895,0.438-1.951,0.652-3.145,0.652
			c-1.199,0-2.271-0.219-3.16-0.652c-0.908-0.436-1.662-1.02-2.271-1.747c-0.6-0.729-1.051-1.562-1.35-2.521
			c-0.301-0.957-0.451-1.979-0.451-3.022C137.885,17.919,138.035,16.899,138.336,15.941z M139.674,21.418
			c0.223,0.812,0.564,1.529,1.029,2.166c0.465,0.636,1.061,1.146,1.791,1.531c0.729,0.387,1.6,0.58,2.609,0.58
			c1.02,0,1.889-0.193,2.604-0.58c0.719-0.385,1.312-0.896,1.778-1.531c0.466-0.637,0.808-1.354,1.021-2.166
			c0.229-0.807,0.334-1.625,0.334-2.454c0-0.845-0.104-1.665-0.334-2.466c-0.221-0.8-0.562-1.519-1.021-2.154
			c-0.468-0.635-1.062-1.146-1.778-1.521c-0.726-0.396-1.59-0.578-2.604-0.578c-1.021,0-1.896,0.188-2.609,0.578
			c-0.73,0.387-1.326,0.896-1.791,1.521c-0.465,0.646-0.812,1.354-1.029,2.154c-0.221,0.801-0.332,1.622-0.332,2.466
			C139.342,19.793,139.453,20.612,139.674,21.418z"/>
		<path class="st95" d="M158.68,11.311l4.33,6.396l4.48-6.396h1.629l-5.23,7.46l5.531,7.846h-1.758l-4.652-6.752l-4.717,6.752
			h-1.629l5.479-7.891l-5.188-7.416L158.68,11.311L158.68,11.311z"/>
	</g>
	<g>
		<polygon class="st90" points="22.959,29.987 13.592,34.817 4,29.901 13.369,25.073 		"/>
		<polygon class="st47" points="19.004,27.96 13.498,30.797 7.863,27.91 13.369,25.073 		"/>
		<polygon class="st17" points="13.592,34.828 22.959,30 22.959,31.378 13.592,36.207 		"/>
		<polygon class="st10" points="13.592,34.828 4,29.901 4,31.28 13.592,36.207 		"/>
	</g>
	<g>
		<polygon class="st21" points="13.688,27.018 21.326,23.078 21.326,24.229 13.688,28.164 		"/>
		<polygon class="st8" points="13.688,27.018 6.049,23.078 6.049,24.229 13.688,28.164 		"/>
		<polygon class="st61" points="21.326,23.078 13.688,27.018 6.049,23.078 13.688,19.143 		"/>
		<polygon class="st76" points="19.311,22.046 13.688,24.946 8.063,22.046 13.688,19.149 		"/>
	</g>
	<g>
		<polygon class="st94" points="13.688,20.897 22.942,16.127 22.942,17.518 13.688,22.287 		"/>
		<polygon class="st7" points="13.688,20.897 4.432,16.127 4.432,17.518 13.688,22.287 		"/>
		<polygon class="st5" points="22.942,16.127 13.688,20.897 4.432,16.127 13.688,11.356 		"/>
		<polygon class="st0" points="20.502,14.873 13.688,18.386 6.873,14.873 13.688,11.362 		"/>
	</g>
	<g>
		<polygon class="st59" points="22.94,8.803 13.623,13.605 4.305,8.803 13.623,4 		"/>
		<polygon class="st13" points="13.623,13.605 22.94,8.803 22.94,10.203 13.623,15.006 		"/>
		<polygon class="st75" points="13.623,13.605 4.305,8.803 4.305,10.203 13.623,15.006 		"/>
	</g>
</g>
</svg>
