<?xml version="1.0" encoding="utf-8"?>
<!-- Generator: Adobe Illustrator 15.0.0, SVG Export Plug-In . SVG Version: 6.00 Build 0)  -->
<!DOCTYPE svg PUBLIC "-//W3C//DTD SVG 1.1//EN" "http://www.w3.org/Graphics/SVG/1.1/DTD/svg11.dtd">
<svg version="1.1" id="Layer_1" xmlns="http://www.w3.org/2000/svg" xmlns:xlink="http://www.w3.org/1999/xlink" x="0px" y="0px"
	 width="776.535px" height="461.67px" viewBox="0 0 776.535 461.67" style="enable-background:new 0 0 776.535 461.67;"
	 xml:space="preserve">
<style type="text/css">
<![CDATA[
	.st0{opacity:0.76;fill:#43C4A6;enable-background:new    ;}
	.st1{fill:#ACE8F2;}
	.st2{clip-path:url(#SVGID_5_);fill:#81B05F;}
	.st3{clip-path:url(#SVGID_65_);fill:#6699C2;}
	.st4{clip-path:url(#SVGID_15_);fill:#52638F;}
	.st5{fill:#7FE0BF;}
	.st6{fill:none;stroke:#FFFFFF;stroke-width:7;stroke-miterlimit:10;}
	.st7{fill:#4AAA88;}
	.st8{fill:#175D80;}
	.st9{clip-path:url(#SVGID_21_);fill:#353F5C;}
	.st10{fill:#19242B;}
	.st11{fill:#E80000;}
	.st12{clip-path:url(#SVGID_45_);fill:#FFFFFF;}
	.st13{fill:#E9D399;}
	.st14{fill:none;stroke:#FFFFFF;stroke-width:2;stroke-miterlimit:10;}
	.st15{clip-path:url(#SVGID_25_);fill:#C22C28;}
	.st16{fill:#85939E;}
	.st17{fill:#1C2830;}
	.st18{clip-path:url(#SVGID_51_);fill:#7BBA3C;}
	.st19{fill:#897596;}
	.st20{fill:#B8B8B8;}
	.st21{fill:#1E77A3;}
	.st22{fill:none;stroke:#FFFFFF;stroke-miterlimit:10;stroke-dasharray:3.9274,1.9637;}
	.st23{fill:#EF3942;}
	.st24{fill:#EF454E;}
	.st25{clip-path:url(#SVGID_23_);fill:#374E78;}
	.st26{clip-path:url(#SVGID_62_);fill:#666666;}
	.st27{clip-path:url(#SVGID_13_);fill:#374E78;}
	.st28{clip-path:url(#SVGID_37_);fill:#61AAB8;}
	.st29{fill:#212C33;}
	.st30{clip-path:url(#SVGID_2_);fill:#B52B32;}
	.st31{fill:#F28885;}
	.st32{fill:none;stroke:#FFFFFF;stroke-width:5;stroke-linecap:round;stroke-miterlimit:10;}
	.st33{clip-path:url(#SVGID_27_);fill:#61AAB8;}
	.st34{clip-path:url(#SVGID_9_);fill:#52638F;}
	.st35{clip-path:url(#SVGID_69_);fill:#6B7680;}
	.st36{clip-path:url(#SVGID_7_);fill:#29577D;}
	.st37{fill:#91DC47;}
	.st38{clip-path:url(#SVGID_33_);fill:#437680;}
	.st39{fill:url(#SVGID_3_);}
	.st40{clip-path:url(#SVGID_54_);fill:none;stroke:#FFFFFF;stroke-width:3;stroke-miterlimit:10;}
	.st41{clip-path:url(#SVGID_41_);fill:#EA0001;}
	.st42{clip-path:url(#SVGID_17_);fill:#FFFFFF;}
	.st43{fill:#98CF70;}
	.st44{fill:#999999;}
	.st45{fill:none;stroke:#DFDFDF;stroke-linecap:round;stroke-miterlimit:10;}
	.st46{opacity:0.4;fill:#CBADDE;enable-background:new    ;}
	.st47{fill:#2F4352;}
	.st48{fill:#FF616B;}
	.st49{fill:#FF747C;}
	.st50{fill:#FF868D;}
	.st51{fill:#61AAB8;}
	.st52{fill:#FF9399;}
	.st53{fill:#FFA7AD;}
	.st54{fill:#FFBDC0;}
	.st55{fill:#FFC0C4;}
	.st56{fill:#FFD6D9;}
	.st57{fill:#FFD9DB;}
	.st58{fill:#FFDEE0;}
	.st59{fill:#FFF4CA;}
	.st60{fill:#FFFFFF;}
	.st61{fill:#62B1DD;}
	.st62{fill:#65CF69;}
	.st63{fill:#9C6B3D;}
	.st64{fill:#697FB8;}
	.st65{fill:#9E9E9E;}
	.st66{clip-path:url(#SVGID_19_);fill:#FFFFFF;}
	.st67{fill:#3672A4;}
	.st68{clip-path:url(#SVGID_60_);fill:#805832;}
	.st69{clip-path:url(#SVGID_43_);fill:#8A0001;}
	.st70{clip-path:url(#SVGID_47_);fill:#7BBA3C;}
	.st71{clip-path:url(#SVGID_56_);fill:#325680;}
	.st72{clip-path:url(#SVGID_11_);fill:#52638F;}
	.st73{fill:#D3D3D3;}
	.st74{fill:#3D699C;}
	.st75{fill:#D9BB6F;}
	.st76{opacity:0.42;fill:#0B194F;enable-background:new    ;}
	.st77{clip-path:url(#SVGID_35_);}
	.st78{clip-path:url(#SVGID_67_);fill:#55B358;}
	.st79{clip-path:url(#SVGID_49_);fill:#7BBA3C;}
	.st80{clip-path:url(#SVGID_58_);fill:#325680;}
	.st81{fill:#75AFDE;}
	.st82{fill:#75CEDE;}
	.st83{opacity:0.28;fill:#CBADDE;enable-background:new    ;}
	.st84{clip-path:url(#SVGID_31_);fill:#61AAB8;}
	.st85{fill:#DADADA;}
	.st86{fill:#DBDBDB;}
	.st87{fill:#DBEFFF;}
	.st88{fill:#DC322D;}
	.st89{fill:none;stroke:#FFFFFF;stroke-width:3;stroke-miterlimit:10;}
	.st90{fill:#405C70;}
	.st91{clip-path:url(#SVGID_39_);fill:#7B6987;}
	.st92{fill:#DFDFDF;}
	.st93{fill:#437680;}
	.st94{fill:#43C494;}
	.st95{fill:#446378;}
	.st96{clip-path:url(#SVGID_29_);fill:#437680;}
]]>
</style>
<symbol  id="New_Symbol" viewBox="-1.5 -16.971 3 33.941">
	<line class="st89" x1="0" y1="-16.971" x2="0" y2="16.971"/>
</symbol>
<g id="badge-ruby">
	<polygon class="st23" points="146.435,133.695 110.668,154.344 74.904,133.695 74.904,92.397 110.668,71.748 146.435,92.397 	"/>
	<g>
		<g>
			<g>
				<g>
					<defs>
						<polygon id="SVGID_1_" points="146.435,133.695 110.668,154.344 74.904,133.695 74.904,92.397 110.668,71.748 146.435,92.397 
													"/>
					</defs>
					<clipPath id="SVGID_2_">
						<use xlink:href="#SVGID_1_"  style="overflow:visible;"/>
					</clipPath>
					<polyline class="st30" points="92.509,121.086 126.583,145.156 146.435,133.695 146.435,123.921 136.792,109.1 					"/>
				</g>
			</g>
		</g>
	</g>
	<polygon class="st56" points="126.708,98.413 119.334,94.46 110.556,94.46 101.775,94.46 94.707,98.413 84.545,109.1 
		92.998,120.833 110.597,133.839 110.597,133.851 110.603,133.842 110.613,133.851 110.708,133.757 128.191,120.806 136.792,109.1 	
		"/>
	<path class="st85" d="M110.556,120.806"/>
	<polygon class="st53" points="128.191,120.806 118.189,109.044 110.605,121.898 	"/>
	<polygon class="st56" points="118.189,109.044 126.583,103.757 128.191,120.806 	"/>
	<polygon class="st55" points="128.191,120.806 136.792,109.1 126.708,98.413 126.583,103.757 	"/>
	<polygon class="st52" points="92.998,120.833 102.921,109.053 110.605,121.898 	"/>
	<polygon class="st73" points="102.921,109.053 94.75,103.757 92.998,120.833 	"/>
	<polygon class="st57" points="102.921,109.053 94.75,103.757 92.998,120.833 	"/>
	<polygon class="st54" points="92.998,120.833 84.545,109.1 94.707,98.413 94.75,103.757 	"/>
	<polygon class="st55" points="110.556,109.007 102.921,109.053 102.921,109.053 110.605,121.898 118.189,109.044 118.189,109.044 	
		"/>
	<polygon class="st60" points="119.334,94.46 110.556,94.46 101.775,94.46 94.707,98.413 94.75,103.757 102.921,109.053 
		110.556,109.007 118.189,109.044 126.583,103.757 126.708,98.413 	"/>
	<polygon class="st48" points="110.605,121.898 110.708,133.757 128.191,120.806 	"/>
	<polygon class="st50" points="110.605,121.898 110.605,121.898 92.998,120.833 110.613,133.851 110.708,133.757 	"/>
	
		<linearGradient id="SVGID_3_" gradientUnits="userSpaceOnUse" x1="94.7505" y1="2027.2432" x2="94.7505" y2="2027.2432" gradientTransform="matrix(1 0 0 -1 0 2131)">
		<stop  offset="0" style="stop-color:#F4F4F4"/>
		<stop  offset="0.1976" style="stop-color:#F0F0F0"/>
		<stop  offset="0.403" style="stop-color:#E3E3E3"/>
		<stop  offset="0.612" style="stop-color:#CFCFCF"/>
		<stop  offset="0.822" style="stop-color:#B2B2B2"/>
		<stop  offset="1" style="stop-color:#939393"/>
	</linearGradient>
	<path class="st39" d="M94.75,103.757"/>
	<polygon class="st58" points="126.583,103.757 136.792,109.1 126.708,98.413 	"/>
	<polyline class="st58" points="94.707,104.185 94.64,104.216 84.545,109.1 94.707,98.413 	"/>
	<polygon class="st49" points="101.802,121.366 110.613,133.851 110.605,121.898 	"/>
	<polygon class="st50" points="119.41,121.366 110.597,133.851 110.605,121.898 	"/>
</g>
<g id="badge-nodejs">
	<polygon class="st43" points="217.963,133.339 182.198,153.988 146.435,133.339 146.435,92.041 182.198,71.392 217.963,92.041 	"/>
	<g>
		<g>
			<g>
				<g>
					<defs>
						<polygon id="SVGID_4_" points="217.963,133.339 182.198,153.988 146.435,133.339 146.435,92.041 182.198,71.392 
							217.963,92.041 						"/>
					</defs>
					<clipPath id="SVGID_5_">
						<use xlink:href="#SVGID_4_"  style="overflow:visible;"/>
					</clipPath>
					<polyline class="st2" points="165.144,127.288 165.373,127.517 188.312,150.456 217.963,133.339 217.965,121.845 
						198.935,102.814 182.198,101.401 170.562,104.454 					"/>
				</g>
			</g>
		</g>
	</g>
	<path class="st60" d="M198.935,102.814c0-0.666-0.353-1.276-0.924-1.604l-15.296-9.169c-0.258-0.153-0.549-0.61-0.843-0.61
		c-0.025,0-0.137,0-0.157,0c-0.293,0-0.582,0.457-0.846,0.61l-15.295,8.986c-0.57,0.324-0.925,1.028-0.925,1.695l0.031,23.746
		c0,0.326,0.174,0.656,0.461,0.819c0.285,0.171,0.638,0.182,0.918,0.013l9.16-5.2c0.574-0.34,0.996-0.938,0.996-1.598v-11.07
		c0-0.66,0.279-1.271,0.854-1.599l3.834-2.232c0.288-0.165,0.586-0.246,0.907-0.246c0.314,0,0.629,0.081,0.91,0.246l4.137,2.232
		c0.572,0.327,1.193,0.938,1.193,1.599v11.071c0,0.658,0.08,1.265,0.65,1.603l8.949,5.206c0.287,0.17,0.574,0.17,0.855,0
		c0.282-0.163,0.426-0.47,0.426-0.797v-23.701H198.935z"/>
</g>
<g id="badge-python">
	<polygon class="st67" points="289.578,133.695 253.812,154.344 218.047,133.695 218.047,92.397 253.812,71.748 289.578,92.397 	"/>
	<g>
		<g>
			<g>
				<g>
					<defs>
						<polygon id="SVGID_6_" points="289.578,133.695 253.812,154.344 218.047,133.695 218.047,92.397 253.812,71.748 
							289.578,92.397 						"/>
					</defs>
					<clipPath id="SVGID_7_">
						<use xlink:href="#SVGID_6_"  style="overflow:visible;"/>
					</clipPath>
					<polyline class="st36" points="235.531,118.593 264.89,147.953 289.578,133.695 289.578,124.837 273.349,108.609 					"/>
				</g>
			</g>
		</g>
	</g>
	<path class="st60" d="M253.955,102.105h-8.729v-3.651l3.887-4.104h10.463l4.074,4.255v10.311l-3.819,3.859h-12.159l-4.386,4.423
		v5.564l-3.925-0.499l-3.832-3.668v-10.103l4.445-4.447h13.979L253.955,102.105L253.955,102.105z M250.873,96.638l-1.646,1.645
		l1.646,1.646l1.646-1.646L250.873,96.638z"/>
	<path class="st60" d="M254.924,125.378h8.728v3.37l-3.705,3.418h-10.463l-4.256-3.564V118.29l4-3.577h12.16l4.201-4.243v-5.656
		l4.154,0.131l3.604,3.668v10.101l-4.267,4.729h-14.158L254.924,125.378L254.924,125.378z M255.476,130.509l1.646-1.646
		l-1.646-1.645l-1.646,1.645L255.476,130.509z"/>
</g>
<g id="badge-php">
	<polygon class="st64" points="361.149,133.695 325.382,154.344 289.62,133.695 289.62,92.397 325.382,71.748 361.149,92.397 	"/>
	<g>
		<g>
			<g>
				<g>
					<defs>
						<polygon id="SVGID_8_" points="361.149,133.695 325.382,154.344 289.62,133.695 289.62,92.397 325.382,71.748 361.149,92.397 
													"/>
					</defs>
					<clipPath id="SVGID_9_">
						<use xlink:href="#SVGID_8_"  style="overflow:visible;"/>
					</clipPath>
					<polyline class="st34" points="338.765,121.064 347.866,141.369 361.149,132.757 361.152,98.613 346.669,96.993 					"/>
				</g>
			</g>
		</g>
		<g>
			<g>
				<g>
					<defs>
						<polygon id="SVGID_10_" points="361.149,133.695 325.382,154.344 289.62,133.695 289.62,92.397 325.382,71.748 
							361.149,92.397 						"/>
					</defs>
					<clipPath id="SVGID_11_">
						<use xlink:href="#SVGID_10_"  style="overflow:visible;"/>
					</clipPath>
					<polygon class="st72" points="340.582,123.975 330.327,151.49 361.149,133.695 361.149,116.72 					"/>
				</g>
			</g>
		</g>
		<g>
			<g>
				<g>
					<defs>
						<polygon id="SVGID_12_" points="361.149,133.695 325.382,154.344 289.62,133.695 289.62,92.397 325.382,71.748 
							361.149,92.397 						"/>
					</defs>
					<clipPath id="SVGID_13_">
						<use xlink:href="#SVGID_12_"  style="overflow:visible;"/>
					</clipPath>
					<polygon class="st27" points="350.29,100.729 358.694,112.964 352.577,123.478 348.286,130.853 345.386,135.836 
						340.582,125.117 					"/>
				</g>
			</g>
		</g>
		<g>
			<g>
				<g>
					<defs>
						<polygon id="SVGID_14_" points="361.149,133.695 325.382,154.344 289.62,133.695 289.62,92.397 325.382,71.748 
							361.149,92.397 						"/>
					</defs>
					<clipPath id="SVGID_15_">
						<use xlink:href="#SVGID_14_"  style="overflow:visible;"/>
					</clipPath>
					<polygon class="st4" points="322.788,98.468 329.98,92.151 336.999,93.203 345.946,92.151 356.419,112.836 345.696,127.794 
						334.698,122.723 336.296,113.029 334.698,120.998 330.75,120.74 327.554,124.134 325.321,123.766 325.107,121.339 
						322.788,122.502 320.155,133.419 310.155,135.836 304.189,127.833 307.687,126.198 312.786,130.574 316.644,127.833 
						314.541,113.985 					"/>
				</g>
			</g>
		</g>
		<g>
			<g>
				<g>
					<defs>
						<polygon id="SVGID_16_" points="361.149,133.695 325.382,154.344 289.62,133.695 289.62,92.397 325.382,71.748 
							361.149,92.397 						"/>
					</defs>
					<clipPath id="SVGID_17_">
						<use xlink:href="#SVGID_16_"  style="overflow:visible;"/>
					</clipPath>
					<polygon class="st42" points="325.753,113.337 327.347,116.187 322.138,117.373 310.495,108.423 312.216,107.545 
						322.116,113.994 					"/>
				</g>
			</g>
		</g>
		<g>
			<g>
				<g>
					<defs>
						<polygon id="SVGID_18_" points="361.149,133.695 325.382,154.344 289.62,133.695 289.62,92.397 325.382,71.748 
							361.149,92.397 						"/>
					</defs>
					<clipPath id="SVGID_19_">
						<use xlink:href="#SVGID_18_"  style="overflow:visible;"/>
					</clipPath>
					<polygon class="st66" points="313.089,115.395 309.581,115.395 303.791,110.58 302.562,111.505 308.704,117.386 
						313.791,117.947 					"/>
				</g>
			</g>
		</g>
		<g>
			<g>
				<g>
					<defs>
						<polygon id="SVGID_20_" points="361.149,133.695 325.382,154.344 289.62,133.695 289.62,92.397 325.382,71.748 
							361.149,92.397 						"/>
					</defs>
					<clipPath id="SVGID_21_">
						<use xlink:href="#SVGID_20_"  style="overflow:visible;"/>
					</clipPath>
					<circle class="st9" cx="329.935" cy="105.647" r="2.274"/>
				</g>
			</g>
		</g>
		<g>
			<g>
				<g>
					<defs>
						<polygon id="SVGID_22_" points="361.149,133.695 325.382,154.344 289.62,133.695 289.62,92.397 325.382,71.748 
							361.149,92.397 						"/>
					</defs>
					<clipPath id="SVGID_23_">
						<use xlink:href="#SVGID_22_"  style="overflow:visible;"/>
					</clipPath>
					<polygon class="st25" points="338.765,102.333 334.968,121.064 331.452,120.837 					"/>
				</g>
			</g>
		</g>
	</g>
</g>
<g id="badge-scala">
	<g>
		<g>
			<polygon class="st88" points="432.719,133.695 396.954,154.344 361.189,133.695 361.189,92.397 396.954,71.748 432.719,92.397 
							"/>
		</g>
		<g>
			<g>
				<g>
					<g>
						<defs>
							<polygon id="SVGID_24_" points="432.719,133.695 396.954,154.344 361.189,133.695 361.189,92.397 396.954,71.748 
								432.719,92.397 							"/>
						</defs>
						<clipPath id="SVGID_25_">
							<use xlink:href="#SVGID_24_"  style="overflow:visible;"/>
						</clipPath>
						<polyline class="st15" points="384.051,131.826 403.049,150.824 432.719,133.695 432.719,113.154 408.689,89.123 						"/>
					</g>
				</g>
			</g>
		</g>
		<path class="st31" d="M384.051,105.548c0,0,24.639,2.463,24.639,6.567v-9.854c0,0,0-4.106-24.639-6.569v3.81V105.548z"/>
		<path class="st31" d="M384.051,118.686c0,0,24.639,2.464,24.639,6.571v-9.855c0,0,0-4.106-24.639-6.57V118.686z"/>
		<path class="st60" d="M408.689,89.123v9.854c0,0,0,4.104-24.639,6.568v-9.854C384.051,95.693,408.689,93.229,408.689,89.123z"/>
		<path class="st60" d="M384.051,108.832c0,0,24.639-2.463,24.639-6.567v9.854c0,0,0,4.106-24.639,6.569V108.832z"/>
		<path class="st60" d="M384.051,131.826v-9.854c0,0,24.639-2.464,24.639-6.569v9.855
			C408.689,125.257,408.689,129.362,384.051,131.826z"/>
	</g>
</g>
<g id="badge-go">
	<polygon class="st82" points="504.29,133.695 468.525,154.344 432.761,133.695 432.761,92.397 468.525,71.748 504.29,92.397 	"/>
	<g>
		<g>
			<g>
				<g>
					<defs>
						<polygon id="SVGID_26_" points="504.29,133.695 468.525,154.344 432.761,133.695 432.761,92.397 468.525,71.748 
							504.29,92.397 						"/>
					</defs>
					<clipPath id="SVGID_27_">
						<use xlink:href="#SVGID_26_"  style="overflow:visible;"/>
					</clipPath>
					<circle class="st33" cx="484.099" cy="101.117" r="4.569"/>
				</g>
			</g>
		</g>
		<g>
			<g>
				<g>
					<defs>
						<polygon id="SVGID_28_" points="504.29,133.695 468.525,154.344 432.761,133.695 432.761,92.397 468.525,71.748 
							504.29,92.397 						"/>
					</defs>
					<clipPath id="SVGID_29_">
						<use xlink:href="#SVGID_28_"  style="overflow:visible;"/>
					</clipPath>
					<circle class="st96" cx="484.099" cy="101.117" r="1.917"/>
				</g>
			</g>
		</g>
		<g>
			<g>
				<g>
					<defs>
						<polygon id="SVGID_30_" points="504.29,133.695 468.525,154.344 432.761,133.695 432.761,92.397 468.525,71.748 
							504.29,92.397 						"/>
					</defs>
					<clipPath id="SVGID_31_">
						<use xlink:href="#SVGID_30_"  style="overflow:visible;"/>
					</clipPath>
					<circle class="st84" cx="453.083" cy="101.117" r="4.568"/>
				</g>
			</g>
		</g>
		<g>
			<g>
				<g>
					<defs>
						<polygon id="SVGID_32_" points="504.29,133.695 468.525,154.344 432.761,133.695 432.761,92.397 468.525,71.748 
							504.29,92.397 						"/>
					</defs>
					<clipPath id="SVGID_33_">
						<use xlink:href="#SVGID_32_"  style="overflow:visible;"/>
					</clipPath>
					<circle class="st38" cx="453.083" cy="101.117" r="1.917"/>
				</g>
			</g>
		</g>
		<g>
			<g>
				<g>
					<defs>
						<polygon id="SVGID_34_" points="504.29,133.695 468.525,154.344 432.761,133.695 432.761,92.397 468.525,71.748 
							504.29,92.397 						"/>
					</defs>
					<clipPath id="SVGID_35_">
						<use xlink:href="#SVGID_34_"  style="overflow:visible;"/>
					</clipPath>
					<g class="st77">
						<path class="st51" d="M486.917,112.24c0,10.116-8.277,18.396-18.394,18.396c-10.117,0-18.396-8.277-18.396-18.396
							c0-10.119,8.277-18.395,18.396-18.395C478.64,93.845,486.917,102.123,486.917,112.24z"/>
					</g>
				</g>
			</g>
		</g>
		<g>
			<g>
				<g>
					<defs>
						<polygon id="SVGID_36_" points="504.29,133.695 468.525,154.344 432.761,133.695 432.761,92.397 468.525,71.748 
							504.29,92.397 						"/>
					</defs>
					<clipPath id="SVGID_37_">
						<use xlink:href="#SVGID_36_"  style="overflow:visible;"/>
					</clipPath>
					<polygon class="st28" points="468.525,154.344 486.917,143.725 486.917,112.24 450.13,112.24 450.13,143.724 					"/>
				</g>
			</g>
		</g>
	</g>
	<circle class="st60" cx="459.749" cy="107.468" r="6.352"/>
	<circle class="st60" cx="477.747" cy="107.468" r="6.352"/>
	<circle class="st60" cx="467.373" cy="122.2" r="1.157"/>
	<rect x="466.215" y="118.531" class="st60" width="2.313" height="3.668"/>
	<circle class="st60" cx="470.249" cy="122.2" r="1.156"/>
	<rect x="469.091" y="118.531" class="st60" width="2.312" height="3.668"/>
	<circle class="st93" cx="475.274" cy="107.787" r="1.918"/>
	<circle class="st93" cx="456.777" cy="107.787" r="1.917"/>
	<circle class="st51" cx="489.327" cy="123.167" r="1.896"/>
	<rect x="485.054" y="121.271" class="st51" width="4.271" height="3.792"/>
	<circle class="st51" cx="447.722" cy="123.167" r="1.896"/>
	<rect x="447.722" y="121.271" class="st51" width="4.271" height="3.792"/>
	<ellipse class="st1" cx="472.417" cy="117.639" rx="1.904" ry="1.89"/>
	<ellipse class="st1" cx="465.288" cy="117.639" rx="1.904" ry="1.89"/>
	<path class="st1" d="M466.099,119.345c1.317-0.814,3.396-1.354,5.156-0.218c1.76,1.141,2.375-2.939,2.375-2.939
		c-2.062-1.291-6.041-1.886-9.395-0.124L466.099,119.345z"/>
	<ellipse class="st93" cx="468.892" cy="114.965" rx="2.824" ry="1.68"/>
</g>
<g id="badge-elixir">
	<polygon class="st19" points="182.2,195.287 146.435,215.936 110.67,195.287 110.67,153.988 146.435,133.339 182.2,153.988 	"/>
	<g>
		<g>
			<g>
				<g>
					<defs>
						<polygon id="SVGID_38_" points="182.2,195.287 146.435,215.936 110.67,195.287 110.67,153.988 146.435,133.339 182.2,153.988 
													"/>
					</defs>
					<clipPath id="SVGID_39_">
						<use xlink:href="#SVGID_38_"  style="overflow:visible;"/>
					</clipPath>
					<polyline class="st91" points="133.174,190.813 153.958,211.594 182.2,195.287 182.198,179.63 148.144,145.576 					"/>
				</g>
			</g>
		</g>
	</g>
	<path class="st60" d="M148.144,145.576c0,18.499,15.394,21.301,15.394,33.506c0,9.816-6.369,17.875-16.724,17.875
		c-7.967,0-17.239-4.875-17.239-17.609C129.573,165.551,143.636,145.576,148.144,145.576z"/>
	<path class="st46" d="M162.991,175.301c-0.521,3.435-7.695,6.153-16.5,6.153c-8.979,0-16.271-2.829-16.522-6.354
		c-0.253,1.459-0.396,2.886-0.396,4.248c0,1.645,0.157,3.151,0.444,4.541c2.104,3.637,8.646,6.287,16.398,6.287
		c8.152,0,14.965-2.936,16.686-6.858c0.275-1.362,0.435-2.774,0.435-4.233C163.536,177.714,163.334,176.469,162.991,175.301z"/>
	<path class="st46" d="M160.945,189.105c-4.053-0.219-10.413-5.271-15.866-13.024c-4.981-7.088-7.832-14.48-7.709-19.121
		l-1.681,2.732c-3.104,2.75-0.498,12.263,5.818,21.247c6.318,8.983,13.953,14.041,17.055,11.291L160.945,189.105z"/>
	<path class="st46" d="M148.799,151.792c-8.174,2.994-14.688,9.838-17.651,18.525c-0.978,3.119-1.574,6.204-1.574,9.03
		c0,7.8,3.486,12.639,8.014,15.229c-0.982-2.909-1.531-6.039-1.531-9.312c0-11.562,6.676-21.439,16.113-25.45
		C150.724,157.538,149.504,154.945,148.799,151.792z"/>
	<path class="st83" d="M136.631,193.992c2.938,1.963,6.425,2.872,9.729,2.948c7.301-6.147,12.094-16.495,12.094-28.229
		c0-0.344-0.029-0.678-0.037-1.019c-1.188-1.41-2.461-2.833-3.699-4.367C154.256,177.44,146.866,189.348,136.631,193.992z"/>
</g>
<g id="badge-java">
	<polygon class="st20" points="253.771,195.287 218.005,215.936 182.243,195.287 182.243,153.988 218.005,133.339 253.771,153.988 	
		"/>
	<ellipse class="st60" cx="216.673" cy="185.814" rx="7.551" ry="4.999"/>
	<ellipse class="st92" cx="216.675" cy="170.729" rx="13.083" ry="7.037"/>
	<g>
		<g>
			<ellipse id="SVGID_52_" class="st11" cx="216.673" cy="174.708" rx="10.823" ry="5.822"/>
		</g>
		<g>
			<g>
				<g>
					<defs>
						<ellipse id="SVGID_40_" cx="216.673" cy="174.708" rx="10.823" ry="5.822"/>
					</defs>
					<clipPath id="SVGID_41_">
						<use xlink:href="#SVGID_40_"  style="overflow:visible;"/>
					</clipPath>
					<ellipse class="st41" cx="216.673" cy="174.708" rx="10.823" ry="5.822"/>
				</g>
			</g>
		</g>
		<g>
			<g>
				<g>
					<defs>
						<ellipse id="SVGID_42_" cx="216.673" cy="174.708" rx="10.823" ry="5.822"/>
					</defs>
					<clipPath id="SVGID_43_">
						<use xlink:href="#SVGID_42_"  style="overflow:visible;"/>
					</clipPath>
					<path class="st69" d="M233.369,182.625h-27.137v-7.027c2,1.343,4.922,2.203,8.354,2.203c4.688,0,8.617-1.69,10.121-3.934
						C224.709,173.867,232.707,174.625,233.369,182.625z"/>
				</g>
			</g>
		</g>
	</g>
	<path class="st60" d="M223.922,186.432c-0.916,2-3.812,2.482-7.25,2.482c-3.437,0-6.338-0.916-7.25-2.268l-0.176,0.039
		c-6.722-8.396-6.017-15.713-6.017-15.713v-0.248c0,3.889,6.039,7.037,13.265,7.037c7.228,0,13.174-3.148,13.174-7.037l0.041,0.104
		c0,0,0.933,7.6-5.789,15.6L223.922,186.432L223.922,186.432z"/>
	<g>
		<path class="st60" d="M216.48,165.69c6.455,0,11.278,2.659,11.278,5.036c0,2.378-4.823,5.037-11.278,5.037
			s-11.277-2.659-11.277-5.037C205.203,168.35,210.025,165.69,216.48,165.69 M216.48,163.69c-7.334,0-13.277,3.149-13.277,7.036
			c0,3.887,5.943,7.037,13.277,7.037s13.279-3.15,13.279-7.037C229.758,166.842,223.814,163.69,216.48,163.69L216.48,163.69z"/>
	</g>
	<path class="st89" d="M229.535,171.436c3.449,0,6.242,2.799,6.242,6.248c0,3.446-2.797,6.248-6.246,6.248c-3.448,0-5.299,0-5.299,0
		"/>
	<path class="st89" d="M229.535,171.436c3.449,0,6.242,2.799,6.242,6.248c0,3.446-2.797,6.248-6.246,6.248c-3.448,0-5.299,0-5.299,0
		"/>
	<path class="st45" d="M229.581,172.098c2.237,0,4.167,1.316,5.056,3.22"/>
	<line class="st45" x1="225.232" y1="184.932" x2="231.232" y2="184.932"/>
	<path class="st45" d="M210.021,184.862c-2.812-3.767-3.914-7.201-4.347-9.321"/>
	<path class="st14" d="M226.404,153.948c-1.182,3.985-4.273,6.562-5.729,7.778"/>
	<path class="st14" d="M210.021,162.827c-0.654-4.688,2.062-6.957,4.248-8.78c0.658-0.552,1.176-1.021,1.565-1.438"/>
	<path class="st14" d="M221.599,148.655c1.252,4.744-2.248,7.663-4.127,9.23c-2.242,1.872-2.742,2.488-2.498,4.248"/>
</g>
<g id="badge-erlang">
	<polygon class="st24" points="325.345,195.287 289.578,215.936 253.814,195.287 253.814,153.988 289.578,133.339 325.345,153.988 	
		"/>
	<g>
		<g>
			<g>
				<g>
					<defs>
						<rect id="SVGID_44_" x="255.304" y="157.734" width="69.074" height="31.63"/>
					</defs>
					<clipPath id="SVGID_45_">
						<use xlink:href="#SVGID_44_"  style="overflow:visible;"/>
					</clipPath>
					<path class="st12" d="M301.638,179.243c0,0-4.076,7.266-10.102,7.266s-9.217-6.731-9.217-11.873
						c0-0.465,0.004-0.902,0.008-1.32h24.842v-1.998l-0.037-0.058c-0.025-13.773-9.637-16.006-19.674-16.006
						c-9.221,0-19.135,4.766-19.135,19.135c0,14.371,11.758,18.751,20.826,18.751c15.293,0,18.979-10.604,18.979-10.604
						L301.638,179.243z M288.154,161.248c6.529,0,5.916,5.61,5.916,5.61h-11.434C282.791,166.189,284.07,161.248,288.154,161.248z"
						/>
				</g>
			</g>
		</g>
	</g>
</g>
<g id="badge-clojure">
	<g>
		<polygon class="st37" points="396.915,195.287 361.149,215.936 325.384,195.287 325.384,153.988 361.149,133.339 396.915,153.988 
					"/>
	</g>
	<g>
		<g>
			<g>
				<g>
					<defs>
						<polygon id="SVGID_46_" points="396.915,195.287 361.149,215.936 325.384,195.287 325.384,153.988 361.149,133.339 
							396.915,153.988 						"/>
					</defs>
					<clipPath id="SVGID_47_">
						<use xlink:href="#SVGID_46_"  style="overflow:visible;"/>
					</clipPath>
					<path class="st70" d="M396.915,195.287l0.001-12.551l-20.635-20.635c2.478,5.774,3.66,9.392,3.66,13.281
						c0,10.38-8.414,18.794-18.793,18.794c-4.418,0-8.481-1.523-14.729-3.771l21.541,21.541L396.915,195.287z"/>
				</g>
			</g>
		</g>
		<g>
			<g>
				<g>
					<defs>
						<polygon id="SVGID_48_" points="396.915,195.287 361.149,215.936 325.384,195.287 325.384,153.988 361.149,133.339 
							396.915,153.988 						"/>
					</defs>
					<clipPath id="SVGID_49_">
						<use xlink:href="#SVGID_48_"  style="overflow:visible;"/>
					</clipPath>
					<polygon class="st79" points="325.427,154.014 371.265,199.853 380.682,183.932 349.688,160.497 336.802,155.397 					"/>
				</g>
			</g>
		</g>
		<g>
			<g>
				<g>
					<defs>
						<polygon id="SVGID_50_" points="396.915,195.287 361.149,215.936 325.384,195.287 325.384,153.988 361.149,133.339 
							396.915,153.988 						"/>
					</defs>
					<clipPath id="SVGID_51_">
						<use xlink:href="#SVGID_50_"  style="overflow:visible;"/>
					</clipPath>
					<circle class="st18" cx="360.953" cy="174.969" r="18.99"/>
				</g>
			</g>
		</g>
	</g>
	<circle class="st89" cx="361.149" cy="175.385" r="18.793"/>
	<g>
		<g>
			<g>
				<g>
					<defs>
						<polygon id="SVGID_53_" points="396.874,195.264 361.149,215.889 325.427,195.264 325.427,154.014 361.149,133.388 
							396.874,154.014 						"/>
					</defs>
					<clipPath id="SVGID_54_">
						<use xlink:href="#SVGID_53_"  style="overflow:visible;"/>
					</clipPath>
					<path class="st40" d="M396.874,192.45c-2.54,0.688-5.212,1.058-7.971,1.058c-11.977,0-22.33-6.938-27.262-17.02l-1.997-4.393
						c-4.931-10.077-15.284-17.021-27.26-17.021c-2.41,0-4.754,0.281-7.002,0.812"/>
				</g>
			</g>
		</g>
	</g>
	<line class="st89" x1="361.149" y1="173.531" x2="351.961" y2="191.777"/>
</g>
<g id="badge-lua">
	<g>
		<polygon class="st74" points="468.487,195.287 432.721,215.936 396.956,195.287 396.956,153.988 432.721,133.339 468.487,153.988 
					"/>
	</g>
	<g>
		<g>
			<g>
				<g>
					<defs>
						<polygon id="SVGID_55_" points="468.487,195.287 432.721,215.936 396.956,195.287 396.956,153.988 432.721,133.339 
							468.487,153.988 						"/>
					</defs>
					<clipPath id="SVGID_56_">
						<use xlink:href="#SVGID_55_"  style="overflow:visible;"/>
					</clipPath>
					<polyline class="st71" points="420.678,184.329 445.124,208.773 468.487,195.287 468.485,188.337 443.817,163.668 					"/>
				</g>
			</g>
		</g>
		<g>
			<g>
				<g>
					<defs>
						<polygon id="SVGID_57_" points="468.487,195.287 432.721,215.936 396.956,195.287 396.956,153.988 432.721,133.339 
							468.487,153.988 						"/>
					</defs>
					<clipPath id="SVGID_58_">
						<use xlink:href="#SVGID_57_"  style="overflow:visible;"/>
					</clipPath>
					<polyline class="st80" points="452.213,157.285 468.487,173.559 468.485,185.649 445.688,162.853 					"/>
				</g>
			</g>
		</g>
	</g>
	<circle class="st60" cx="432.721" cy="174.638" r="15.46"/>
	<g>
		<circle class="st22" cx="432.721" cy="174.638" r="21.57"/>
	</g>
	<circle class="st60" cx="448.245" cy="159.241" r="4.428"/>
	<circle class="st74" cx="437.592" cy="169.892" r="4.428"/>
</g>
<g id="badge-c">
	<g>
		<polygon class="st63" points="540.058,195.287 504.292,215.936 468.529,195.287 468.529,153.988 504.292,133.339 540.058,153.988 
					"/>
	</g>
	<g>
		<g>
			<g>
				<g>
					<defs>
						<polygon id="SVGID_59_" points="540.058,195.287 504.292,215.936 468.529,195.287 468.529,153.988 504.292,133.339 
							540.058,153.988 						"/>
					</defs>
					<clipPath id="SVGID_60_">
						<use xlink:href="#SVGID_59_"  style="overflow:visible;"/>
					</clipPath>
					<polygon class="st68" points="487.024,190.098 509.722,212.797 540.058,195.287 540.058,177.163 519.488,156.592 
						504.292,155.221 487.024,165.766 					"/>
				</g>
			</g>
		</g>
	</g>
	<path class="st6" d="M522.078,166.86c-3-6.851-9.83-11.642-17.784-11.642c-10.727,0-19.417,8.694-19.417,19.417
		c0,10.726,8.69,19.417,19.417,19.417c7.955,0,14.784-4.79,17.784-11.64"/>
</g>
<g id="badge-rust">
	<g>
		<polygon class="st65" points="146.486,257.661 110.72,278.311 74.957,257.661 74.957,216.363 110.72,195.713 146.486,216.363 		
			"/>
	</g>
	<g>
		<g>
			<polygon id="SVGID_64_" class="st44" points="146.486,257.661 110.72,278.311 74.957,257.661 74.957,216.363 110.72,195.713 
				146.486,216.363 			"/>
		</g>
		<g>
			<g>
				<g>
					<defs>
						<polygon id="SVGID_61_" points="146.486,257.661 110.72,278.311 74.957,257.661 74.957,216.363 110.72,195.713 
							146.486,216.363 						"/>
					</defs>
					<clipPath id="SVGID_62_">
						<use xlink:href="#SVGID_61_"  style="overflow:visible;"/>
					</clipPath>
					<polygon class="st26" points="110.093,214.872 111.086,213.569 114.148,216.628 115.576,213.862 118.675,216.963 
						120.042,215.291 123.162,218.41 123.996,217.352 127.576,220.931 127.662,220.344 146.484,239.166 146.486,257.661 
						114.713,276.009 93.226,254.52 93.631,254.153 90.511,251.032 91.101,249.852 88.289,247.04 89.437,245.209 86.843,242.615 
						88.679,240.294 86.203,237.817 96.624,221.794 					"/>
				</g>
			</g>
		</g>
	</g>
	<path id="path3" class="st86" d="M134.439,236.913l-2.039-1.262c-0.019-0.199-0.037-0.396-0.059-0.596l1.752-1.634
		c0.178-0.167,0.258-0.412,0.211-0.647c-0.048-0.24-0.216-0.438-0.443-0.521l-2.238-0.836c-0.057-0.195-0.113-0.387-0.176-0.578
		l1.396-1.938c0.143-0.197,0.172-0.453,0.078-0.681c-0.093-0.224-0.296-0.385-0.535-0.424l-2.359-0.384
		c-0.094-0.179-0.188-0.355-0.283-0.53l0.99-2.178c0.104-0.223,0.082-0.48-0.055-0.682c-0.136-0.201-0.363-0.32-0.605-0.312
		l-2.396,0.084c-0.123-0.156-0.25-0.309-0.378-0.46l0.552-2.334c0.058-0.237-0.016-0.485-0.188-0.657
		c-0.172-0.172-0.42-0.24-0.658-0.188l-2.333,0.551c-0.149-0.128-0.305-0.255-0.46-0.378l0.084-2.397
		c0.012-0.24-0.107-0.473-0.311-0.605c-0.203-0.137-0.459-0.156-0.684-0.057l-2.178,0.993c-0.176-0.097-0.354-0.19-0.529-0.284
		l-0.386-2.36c-0.039-0.239-0.198-0.442-0.424-0.535c-0.226-0.093-0.479-0.063-0.679,0.079l-1.94,1.396
		c-0.188-0.061-0.383-0.118-0.578-0.175l-0.836-2.239c-0.086-0.229-0.278-0.396-0.521-0.441c-0.238-0.048-0.481,0.03-0.647,0.209
		l-1.636,1.754c-0.196-0.021-0.396-0.042-0.594-0.061l-1.264-2.038c-0.127-0.204-0.354-0.332-0.597-0.332s-0.47,0.127-0.597,0.332
		l-1.262,2.038c-0.199,0.019-0.396,0.037-0.595,0.061l-1.635-1.754c-0.166-0.179-0.412-0.257-0.649-0.209
		c-0.238,0.048-0.438,0.215-0.521,0.441l-0.838,2.239c-0.192,0.057-0.385,0.114-0.575,0.175l-1.94-1.396
		c-0.197-0.145-0.453-0.174-0.678-0.079c-0.227,0.093-0.389,0.296-0.426,0.535l-0.387,2.36c-0.179,0.094-0.354,0.188-0.529,0.284
		l-2.178-0.993c-0.222-0.102-0.479-0.08-0.681,0.057c-0.202,0.135-0.319,0.365-0.312,0.605l0.082,2.397
		c-0.153,0.123-0.311,0.25-0.459,0.378l-2.334-0.551c-0.237-0.057-0.485,0.016-0.657,0.188c-0.173,0.172-0.242,0.42-0.188,0.657
		l0.551,2.334c-0.127,0.151-0.254,0.304-0.377,0.46l-2.396-0.084c-0.241-0.008-0.473,0.109-0.605,0.312
		c-0.138,0.199-0.156,0.459-0.058,0.682l0.993,2.178c-0.098,0.175-0.191,0.354-0.284,0.53l-2.36,0.384
		c-0.238,0.039-0.44,0.2-0.535,0.424c-0.092,0.228-0.062,0.48,0.08,0.681l1.396,1.938c-0.062,0.191-0.121,0.383-0.178,0.578
		l-2.238,0.836c-0.229,0.086-0.396,0.281-0.439,0.521c-0.049,0.236,0.029,0.48,0.209,0.647l1.752,1.634
		c-0.021,0.197-0.041,0.396-0.059,0.596l-2.039,1.262c-0.207,0.127-0.332,0.353-0.332,0.597c0,0.243,0.125,0.47,0.332,0.595
		l2.039,1.264c0.018,0.197,0.035,0.396,0.059,0.595l-1.752,1.634c-0.18,0.166-0.258,0.412-0.209,0.649
		c0.047,0.239,0.215,0.436,0.439,0.521l2.238,0.84c0.057,0.191,0.115,0.386,0.178,0.575l-1.396,1.94
		c-0.144,0.197-0.172,0.454-0.08,0.679c0.095,0.226,0.297,0.385,0.537,0.423l2.358,0.385c0.093,0.181,0.188,0.355,0.284,0.531
		l-0.993,2.178c-0.101,0.222-0.08,0.479,0.058,0.682c0.135,0.202,0.364,0.321,0.605,0.311l2.396-0.084
		c0.125,0.156,0.252,0.312,0.379,0.461l-0.549,2.334c-0.059,0.236,0.014,0.484,0.187,0.656c0.172,0.173,0.42,0.242,0.657,0.188
		l2.334-0.549c0.148,0.129,0.306,0.254,0.459,0.377l-0.082,2.396c-0.01,0.244,0.105,0.476,0.312,0.609
		c0.201,0.135,0.459,0.153,0.681,0.054l2.179-0.992c0.177,0.1,0.353,0.192,0.53,0.284l0.386,2.36
		c0.036,0.238,0.198,0.441,0.425,0.536c0.223,0.093,0.479,0.062,0.678-0.078l1.938-1.398c0.19,0.062,0.386,0.12,0.577,0.179
		l0.838,2.235c0.084,0.229,0.281,0.396,0.521,0.442c0.237,0.049,0.482-0.032,0.648-0.21l1.636-1.752
		c0.193,0.021,0.396,0.043,0.596,0.061l1.26,2.037c0.129,0.205,0.354,0.332,0.599,0.332c0.241,0,0.469-0.126,0.597-0.332
		l1.262-2.037c0.199-0.018,0.396-0.037,0.595-0.061l1.635,1.752c0.164,0.178,0.41,0.259,0.647,0.21
		c0.238-0.047,0.437-0.215,0.521-0.442l0.836-2.235c0.193-0.059,0.389-0.116,0.578-0.179l1.939,1.398
		c0.195,0.141,0.455,0.171,0.68,0.078c0.225-0.095,0.385-0.298,0.424-0.536l0.385-2.36c0.18-0.092,0.354-0.188,0.529-0.284
		l2.178,0.992c0.223,0.104,0.479,0.081,0.682-0.054c0.201-0.138,0.318-0.365,0.312-0.609l-0.084-2.396
		c0.154-0.123,0.311-0.248,0.459-0.377l2.334,0.549c0.237,0.057,0.486-0.014,0.658-0.188c0.172-0.172,0.242-0.42,0.188-0.656
		l-0.551-2.334c0.127-0.149,0.254-0.305,0.377-0.461l2.396,0.084c0.24,0.013,0.473-0.106,0.605-0.311
		c0.135-0.203,0.155-0.46,0.055-0.682l-0.99-2.178c0.098-0.176,0.189-0.353,0.281-0.531l2.361-0.385
		c0.239-0.038,0.442-0.197,0.534-0.423c0.095-0.225,0.063-0.479-0.077-0.679l-1.396-1.94c0.062-0.189,0.117-0.384,0.177-0.575
		l2.237-0.84c0.229-0.085,0.396-0.279,0.439-0.521c0.049-0.239-0.031-0.483-0.209-0.649l-1.752-1.634
		c0.021-0.197,0.041-0.396,0.061-0.595l2.037-1.264c0.207-0.125,0.334-0.352,0.334-0.595
		C134.771,237.267,134.644,237.04,134.439,236.913L134.439,236.913z M120.796,253.819c-0.777-0.167-1.271-0.936-1.105-1.715
		c0.166-0.78,0.936-1.275,1.711-1.107c0.779,0.166,1.273,0.935,1.106,1.714C122.34,253.489,121.576,253.987,120.796,253.819z
		 M120.105,249.135c-0.711-0.149-1.406,0.301-1.562,1.012l-0.726,3.377c-2.231,1.016-4.713,1.576-7.323,1.576
		c-2.671,0-5.205-0.591-7.479-1.646l-0.724-3.376c-0.151-0.712-0.853-1.164-1.562-1.012l-2.98,0.641
		c-0.555-0.57-1.068-1.176-1.541-1.817h14.506c0.164,0,0.271-0.027,0.271-0.179v-5.131c0-0.149-0.107-0.179-0.271-0.179h-4.242
		v-3.253h4.588c0.418,0,2.239,0.119,2.821,2.445c0.185,0.715,0.583,3.043,0.854,3.789c0.271,0.836,1.385,2.505,2.566,2.505h7.229
		c0.082,0,0.17-0.009,0.264-0.023c-0.502,0.682-1.053,1.323-1.646,1.929L120.105,249.135L120.105,249.135z M100.042,253.75
		c-0.778,0.168-1.545-0.329-1.712-1.108c-0.167-0.779,0.329-1.548,1.105-1.716c0.777-0.166,1.545,0.329,1.713,1.11
		C101.316,252.813,100.82,253.583,100.042,253.75z M94.54,231.436c0.321,0.729-0.006,1.582-0.733,1.905
		c-0.728,0.323-1.578-0.006-1.902-0.733c-0.32-0.729,0.008-1.582,0.734-1.904C93.367,230.378,94.215,230.708,94.54,231.436z
		 M92.849,235.446l3.104-1.381c0.662-0.295,0.963-1.071,0.668-1.736l-0.642-1.446h2.517v11.339h-5.074
		c-0.438-1.549-0.676-3.182-0.676-4.869C92.748,236.708,92.783,236.071,92.849,235.446z M106.476,234.344v-3.342h5.989
		c0.312,0,2.187,0.357,2.187,1.76c0,1.164-1.438,1.582-2.621,1.582H106.476L106.476,234.344z M128.246,237.352
		c0,0.443-0.018,0.884-0.049,1.317h-1.82c-0.186,0-0.256,0.12-0.256,0.298v0.838c0,1.969-1.111,2.396-2.084,2.506
		c-0.928,0.104-1.952-0.389-2.078-0.953c-0.549-3.074-1.459-3.729-2.896-4.865c1.785-1.133,3.645-2.807,3.645-5.042
		c0-2.415-1.656-3.938-2.785-4.687c-1.584-1.043-3.338-1.253-3.812-1.253H97.275c2.554-2.85,6.015-4.869,9.931-5.604l2.22,2.33
		c0.502,0.523,1.334,0.544,1.857,0.042l2.482-2.376c5.205,0.969,9.61,4.209,12.149,8.652l-1.699,3.84
		c-0.293,0.666,0.007,1.442,0.669,1.737l3.272,1.454C128.215,236.169,128.246,236.756,128.246,237.352z M109.424,217.926
		c0.574-0.551,1.487-0.529,2.037,0.047c0.552,0.578,0.529,1.49-0.047,2.042c-0.575,0.552-1.487,0.529-2.039-0.048
		C108.828,219.391,108.849,218.477,109.424,217.926z M126.299,231.506c0.322-0.729,1.175-1.058,1.9-0.732
		c0.728,0.322,1.057,1.176,0.731,1.903c-0.322,0.729-1.174,1.06-1.901,0.734C126.306,233.088,125.978,232.236,126.299,231.506z"/>
</g>
<g id="badge-perl">
	<g>
		<g>
			<polygon class="st29" points="218.056,257.661 182.291,278.311 146.527,257.661 146.527,216.363 182.291,195.713 
				218.056,216.363 			"/>
		</g>
		<g>
			<polygon class="st81" points="218.056,257.661 182.291,278.311 146.527,257.661 146.527,216.363 182.291,195.713 
				218.056,216.363 			"/>
		</g>
	</g>
	<g>
		<g>
			<g>
				<g>
					<defs>
						<polygon id="SVGID_63_" points="218.056,257.661 182.291,278.311 146.527,257.661 146.527,216.363 182.291,195.713 
							218.056,216.363 						"/>
					</defs>
					<clipPath id="SVGID_65_">
						<use xlink:href="#SVGID_63_"  style="overflow:visible;"/>
					</clipPath>
					<polyline class="st3" points="168.814,245.561 194.505,271.253 218.056,257.661 218.058,253.629 191.513,227.085 					"/>
				</g>
			</g>
		</g>
	</g>
	<circle class="st60" cx="180.722" cy="237.013" r="14.663"/>
	<path class="st87" d="M191.691,227.302c0.232,1.077,0.367,2.193,0.367,3.341c0,8.6-6.972,15.568-15.566,15.568
		c-3.348,0-6.439-1.064-8.977-2.863c2.362,4.922,7.383,8.327,13.207,8.327c8.1,0,14.664-6.562,14.664-14.663
		C195.386,233.284,193.982,229.889,191.691,227.302z"/>
</g>
<g id="badge-lisp">
	<polygon class="st62" points="289.628,256.551 253.864,277.201 218.099,256.551 218.099,215.253 253.864,194.604 289.628,215.253 	
		"/>
	<g>
		<g>
			<g>
				<g>
					<defs>
						<polygon id="SVGID_66_" points="289.628,256.551 253.864,277.201 218.099,256.551 218.099,215.253 253.864,194.604 
							289.628,215.253 						"/>
					</defs>
					<clipPath id="SVGID_67_">
						<use xlink:href="#SVGID_66_"  style="overflow:visible;"/>
					</clipPath>
					<polygon class="st78" points="289.628,254.755 289.627,243.142 270.267,223.781 265.478,224.669 258.503,217.695 
						253.866,216.535 241.282,223.103 236.45,234.113 234.792,247.339 242.345,254.891 242.109,258.854 258.042,274.787 					"/>
				</g>
			</g>
		</g>
	</g>
	<circle class="st60" cx="253.866" cy="223.781" r="10.333"/>
	<path class="st32" d="M263.253,223.781c4.633,0,8.389,3.756,8.389,8.391v20.396"/>
	<path class="st32" d="M245.476,223.781c-4.633,0-8.389,3.756-8.389,8.391v14.068"/>
	<path class="st32" d="M264.642,248.783v-16.611c0-0.768-0.623-1.391-1.389-1.391l-2.844-2.382"/>
	<path class="st32" d="M244.087,257.117v-24.945c0-0.768,0.623-1.391,1.389-1.391l2.842-2.382"/>
	<line class="st32" x1="250.968" y1="230.871" x2="250.968" y2="248.783"/>
	<line class="st32" x1="257.761" y1="230.871" x2="257.761" y2="254.755"/>
	<circle class="st62" cx="253.622" cy="227.399" r="2.134"/>
	<circle class="st62" cx="253.622" cy="218.76" r="2.134"/>
	<circle class="st62" cx="249.302" cy="223.079" r="2.134"/>
	<circle class="st62" cx="257.941" cy="223.079" r="2.134"/>
</g>
<g id="badge-none">
	<polygon class="st16" points="361.11,257.234 325.345,277.885 289.581,257.234 289.581,215.937 325.345,195.287 361.11,215.937 	
		"/>
	<g>
		<g>
			<g>
				<g>
					<defs>
						<polygon id="SVGID_68_" points="361.11,257.234 325.345,277.885 289.581,257.234 289.581,215.937 325.345,195.287 
							361.11,215.937 						"/>
					</defs>
					<clipPath id="SVGID_69_">
						<use xlink:href="#SVGID_68_"  style="overflow:visible;"/>
					</clipPath>
					<polygon class="st35" points="342.314,234.797 337.984,235.353 326.821,219.443 326.125,236.118 308.255,237.576 
						329.797,275.313 357.563,259.28 					"/>
				</g>
			</g>
		</g>
	</g>
	
		<use xlink:href="#New_Symbol"  width="3" height="33.941" x="-1.5" y="-16.971" transform="matrix(1 0 0 -1 325.3706 236.373)" style="overflow:visible;"/>
	<line class="st89" x1="342.341" y1="236.374" x2="308.4" y2="236.374"/>
</g>
<g id="logo-horizontal">
	<g id="_x3E_logotype">
		<path class="st95" d="M141.877,329.5l8.918,12.938h0.043V329.5h1.459v15.306h-1.629l-8.918-12.948h-0.043v12.948h-1.459V329.5
			H141.877z"/>
		<path class="st95" d="M165.331,329.5l6.004,15.306h-1.561l-1.865-4.76h-6.963l-1.855,4.76h-1.543l6.156-15.306H165.331z
			 M167.411,338.804l-2.959-7.847l-3.064,7.847H167.411L167.411,338.804z"/>
		<path class="st95" d="M178.193,329.5l8.918,12.938h0.043V329.5h1.459v15.306h-1.631l-8.918-12.948h-0.043v12.948h-1.457V329.5
			H178.193z"/>
		<path class="st95" d="M195.172,334.131c0.301-0.957,0.75-1.812,1.355-2.54c0.6-0.736,1.354-1.321,2.262-1.758
			c0.906-0.438,1.961-0.654,3.162-0.654c1.197,0,2.25,0.219,3.145,0.654c0.9,0.437,1.65,1.021,2.252,1.758
			c0.605,0.729,1.062,1.583,1.355,2.54c0.301,0.958,0.451,1.965,0.451,3.021c0,1.062-0.15,2.065-0.451,3.022
			c-0.299,0.957-0.75,1.801-1.355,2.521c-0.602,0.729-1.352,1.312-2.252,1.747c-0.895,0.438-1.938,0.652-3.145,0.652
			c-1.209,0-2.256-0.219-3.162-0.652c-0.908-0.436-1.662-1.02-2.262-1.747c-0.605-0.729-1.062-1.562-1.355-2.521
			c-0.301-0.957-0.449-1.979-0.449-3.022C194.724,336.108,194.874,335.089,195.172,334.131z M196.513,339.607
			c0.23,0.812,0.564,1.529,1.029,2.166c0.465,0.636,1.062,1.146,1.791,1.531c0.73,0.387,1.6,0.58,2.615,0.58
			c1.014,0,1.883-0.193,2.604-0.58c0.73-0.385,1.314-0.896,1.779-1.531c0.463-0.637,0.809-1.354,1.027-2.166
			c0.223-0.807,0.334-1.625,0.334-2.454c0-0.845-0.111-1.665-0.334-2.466c-0.221-0.8-0.564-1.519-1.027-2.154
			c-0.465-0.636-1.059-1.146-1.779-1.521c-0.723-0.396-1.592-0.578-2.604-0.578c-1.016,0-1.887,0.188-2.615,0.578
			c-0.729,0.387-1.326,0.896-1.791,1.521c-0.465,0.646-0.809,1.354-1.029,2.154c-0.221,0.801-0.332,1.622-0.332,2.466
			C196.181,337.982,196.292,338.802,196.513,339.607z"/>
		<path class="st95" d="M221.756,329.5c0.643,0,1.262,0.061,1.855,0.182c0.594,0.122,1.104,0.329,1.561,0.622
			c0.449,0.293,0.812,0.679,1.082,1.157c0.271,0.479,0.408,1.062,0.408,1.789c0,0.396-0.064,0.772-0.193,1.17
			c-0.129,0.379-0.311,0.722-0.547,1.021c-0.232,0.312-0.514,0.566-0.836,0.781c-0.322,0.215-0.684,0.365-1.082,0.451v0.043
			c0.984,0.127,1.771,0.521,2.357,1.211c0.586,0.679,0.879,1.519,0.879,2.52c0,0.243-0.021,0.521-0.064,0.825
			c-0.043,0.312-0.129,0.621-0.258,0.942c-0.127,0.312-0.312,0.641-0.557,0.955c-0.244,0.312-0.568,0.588-0.98,0.812
			c-0.406,0.231-0.906,0.438-1.5,0.575c-0.594,0.146-1.305,0.229-2.133,0.229h-6.479v-15.287h6.479v0.018L221.756,329.5
			L221.756,329.5z M221.756,336.211c0.586,0,1.094-0.068,1.521-0.205c0.43-0.146,0.785-0.32,1.061-0.562
			c0.287-0.229,0.5-0.512,0.646-0.82c0.143-0.312,0.215-0.646,0.215-1.013c0-1.915-1.15-2.873-3.451-2.873h-5.018v5.479
			L221.756,336.211L221.756,336.211z M221.756,343.563c0.543,0,1.059-0.048,1.543-0.14c0.486-0.104,0.914-0.271,1.287-0.504
			c0.371-0.244,0.664-0.568,0.879-0.979c0.213-0.407,0.32-0.918,0.32-1.532c0-0.979-0.346-1.727-1.039-2.219
			c-0.693-0.493-1.689-0.74-2.99-0.74h-5.018v6.109L221.756,343.563L221.756,343.563z"/>
		<path class="st95" d="M233.077,334.131c0.299-0.957,0.75-1.812,1.35-2.54c0.605-0.736,1.355-1.321,2.271-1.758
			c0.896-0.438,1.961-0.654,3.16-0.654c1.188,0,2.252,0.219,3.145,0.654c0.9,0.437,1.65,1.021,2.25,1.758
			c0.605,0.729,1.051,1.583,1.355,2.54c0.301,0.958,0.438,1.965,0.438,3.021c0,1.062-0.145,2.065-0.438,3.022
			c-0.312,0.957-0.75,1.801-1.355,2.521c-0.6,0.729-1.35,1.312-2.25,1.747c-0.895,0.438-1.951,0.652-3.145,0.652
			c-1.199,0-2.271-0.219-3.16-0.652c-0.908-0.436-1.662-1.02-2.271-1.747c-0.6-0.729-1.051-1.562-1.35-2.521
			c-0.301-0.957-0.451-1.979-0.451-3.022C232.625,336.108,232.776,335.089,233.077,334.131z M234.415,339.607
			c0.223,0.812,0.564,1.529,1.029,2.166c0.465,0.636,1.061,1.146,1.791,1.531c0.729,0.387,1.6,0.58,2.609,0.58
			c1.02,0,1.889-0.193,2.604-0.58c0.719-0.385,1.312-0.896,1.778-1.531c0.466-0.637,0.808-1.354,1.021-2.166
			c0.229-0.807,0.334-1.625,0.334-2.454c0-0.845-0.104-1.665-0.334-2.466c-0.221-0.8-0.562-1.519-1.021-2.154
			c-0.468-0.635-1.062-1.146-1.778-1.521c-0.726-0.396-1.59-0.578-2.604-0.578c-1.021,0-1.896,0.188-2.609,0.578
			c-0.73,0.387-1.326,0.896-1.791,1.521c-0.465,0.646-0.812,1.354-1.029,2.154c-0.221,0.801-0.332,1.622-0.332,2.466
			C234.083,337.982,234.194,338.802,234.415,339.607z"/>
		<path class="st95" d="M253.42,329.5l4.33,6.396l4.48-6.396h1.629l-5.23,7.46l5.531,7.846h-1.758l-4.652-6.752l-4.717,6.752h-1.629
			l5.479-7.891l-5.188-7.416L253.42,329.5L253.42,329.5z"/>
	</g>
	<g>
		<polygon class="st90" points="117.7,348.177 108.333,353.007 98.741,348.091 108.109,343.263 		"/>
		<polygon class="st47" points="113.745,346.149 108.239,348.987 102.604,346.1 108.109,343.263 		"/>
		<polygon class="st17" points="108.333,353.018 117.7,348.189 117.7,349.567 108.333,354.396 		"/>
		<polygon class="st10" points="108.333,353.018 98.741,348.091 98.741,349.47 108.333,354.396 		"/>
	</g>
	<g>
		<polygon class="st21" points="108.429,345.208 116.066,341.268 116.066,342.418 108.429,346.354 		"/>
		<polygon class="st8" points="108.429,345.208 100.79,341.268 100.79,342.418 108.429,346.354 		"/>
		<polygon class="st61" points="116.066,341.268 108.429,345.208 100.79,341.268 108.429,337.333 		"/>
		<polygon class="st76" points="114.052,340.236 108.429,343.136 102.804,340.236 108.429,337.339 		"/>
	</g>
	<g>
		<polygon class="st94" points="108.429,339.086 117.683,334.316 117.683,335.708 108.429,340.477 		"/>
		<polygon class="st7" points="108.429,339.086 99.172,334.316 99.172,335.708 108.429,340.477 		"/>
		<polygon class="st5" points="117.683,334.316 108.429,339.086 99.172,334.316 108.429,329.545 		"/>
		<polygon class="st0" points="115.243,333.062 108.429,336.576 101.614,333.062 108.429,329.552 		"/>
	</g>
	<g>
		<polygon class="st59" points="117.681,326.993 108.364,331.794 99.045,326.993 108.364,322.189 		"/>
		<polygon class="st13" points="108.364,331.794 117.681,326.993 117.681,328.393 108.364,333.196 		"/>
		<polygon class="st75" points="108.364,331.794 99.045,326.993 99.045,328.393 108.364,333.196 		"/>
	</g>
</g>
</svg>
